<svg width="30" height="30" viewBox="0 0 30 30" fill="none" xmlns="http://www.w3.org/2000/svg">
<path d="M28.0744 12.4126C30.2496 14.5809 28.674 18.3233 25.5774 18.3438L10.3066 18.4446L16.3617 24.4807C17.4179 25.5336 17.4179 27.2407 16.3617 28.2936C15.3055 29.3465 13.593 29.3465 12.5368 28.2936L1.82584 17.6162C1.3676 17.1594 1.10817 16.5794 1.04755 15.9832C0.731595 14.8602 0.970297 13.5696 1.95794 12.585L12.6286 1.94778C13.995 0.585684 16.1958 0.571156 17.5442 1.91533L28.0744 12.4126Z" fill="#4F5661"/>
<path d="M9.92993 11.6205C10.4933 11.0572 11.9579 10.2685 13.3099 11.6205M16.6899 11.6205C17.2533 11.0572 18.7179 10.2685 20.0699 11.6205" stroke="#EFF0F2" stroke-linecap="round"/>
</svg>
