<svg width="26" height="26" viewBox="0 0 26 26" fill="none" xmlns="http://www.w3.org/2000/svg">
<rect y="17" width="19.2593" height="9" rx="2" fill="#4F5661"/>
<rect opacity="0.5" y="17" width="19.2593" height="9" rx="2" fill="#EFF0F2"/>
<path d="M3.85195 19.344C3.85195 20.4355 3.85195 21.7456 3.85195 22.83C3.85195 24.1633 3.10934 25.3856 1.92603 26H5.77788C-nan -nan -nan -nan -nan -nanC-nan -nan -nan -nan 5.77788 26C5.77788 26 7.94669 26 10.1519 26H19.7002C21.9054 26 23.008 26 23.8502 25.5466C24.5911 25.1478 25.1934 24.5114 25.5709 23.7286C26.0001 22.8387 26.0001 21.6738 26.0001 19.344V6.76V6.39836C26.0001 4.1597 26.0001 3.04037 25.5647 2.18519C25.1811 1.43163 24.5685 0.819038 23.8149 0.435389C22.9597 0 21.8404 0 19.6017 0H10.1519C7.94669 0 6.8441 1.90735e-06 6.00184 0.453415C5.26096 0.852247 4.6586 1.48865 4.28111 2.2714C3.85195 3.16127 3.85195 4.32618 3.85195 6.656V19.344Z" fill="#4F5661"/>
<path d="M19.6017 3.432C19.6017 4.59691 19.6017 5.17937 19.8163 5.6243C20.0051 6.01568 20.3062 6.33388 20.6767 6.53329C21.0978 6.76 21.6491 6.76 22.7517 6.76H26.0001V6.39836C26.0001 4.1597 26.0001 3.04037 25.5647 2.18519C25.1811 1.43163 24.5685 0.819038 23.8149 0.435389C22.9597 0 21.8404 0 19.6017 0V3.432Z" fill="#4F5661"/>
<path d="M8.6665 7.00049H15.4072" stroke="#EFF0F2" stroke-linecap="round"/>
<path d="M8.6665 11.0005H21.185" stroke="#EFF0F2" stroke-linecap="round"/>
<path d="M8.6665 14.9995H21.185" stroke="#EFF0F2" stroke-linecap="round"/>
<path d="M8.6665 18.9995H21.185" stroke="#EFF0F2" stroke-linecap="round"/>
</svg>
