<svg width="26" height="26" viewBox="0 0 26 26" fill="none" xmlns="http://www.w3.org/2000/svg">
<g clip-path="url(#clip0_13129_1280)">
<mask id="mask0_13129_1280" style="mask-type:luminance" maskUnits="userSpaceOnUse" x="0" y="0" width="26" height="26">
<path d="M22 0H4C1.79086 0 0 1.79086 0 4V22C0 24.2091 1.79086 26 4 26H22C24.2091 26 26 24.2091 26 22V4C26 1.79086 24.2091 0 22 0Z" fill="white"/>
</mask>
<g mask="url(#mask0_13129_1280)">
<path d="M24.8444 0H1.15556C0.51736 0 0 0.465624 0 1.04V13.52C0 14.0944 0.51736 14.56 1.15556 14.56H24.8444C25.4826 14.56 26 14.0944 26 13.52V1.04C26 0.465624 25.4826 0 24.8444 0Z" fill="#4F5661"/>
<path d="M9.70667 12.48C10.3538 12.48 10.6775 12.48 10.9246 12.5933C11.142 12.693 11.3188 12.8521 11.4296 13.0478C11.5556 13.2703 11.5556 13.5615 11.5556 14.144V24.336C11.5556 24.9184 11.5556 25.2097 11.4296 25.4321C11.3188 25.6278 11.142 25.7869 10.9246 25.8866C10.6775 26 10.3538 26 9.70667 26H1.84889C1.20172 26 0.87813 26 0.630945 25.8866C0.413513 25.7869 0.236735 25.6278 0.125949 25.4321C3.70211e-07 25.2097 3.54952e-07 24.9184 3.35764e-07 24.336L0 14.144C-1.91725e-08 13.5615 -2.58287e-08 13.2703 0.125948 13.0478C0.236735 12.8521 0.413513 12.693 0.630945 12.5933C0.87813 12.48 1.20171 12.48 1.84889 12.48H9.70667Z" fill="#4F5661"/>
<path d="M27.226 13.4253C27.3214 13.3211 27.3092 13.158 27.1993 13.0691L27.1961 13.0665L21.0853 8.12654C20.9708 8.03401 20.8061 8.03558 20.6939 8.13086L18.5427 9.95798L14.5237 6.34087H17.8189H17.8479C17.9918 6.34087 18.1084 6.22387 18.1078 6.07993L18.1042 5.17034C18.1037 5.02709 17.9874 4.91125 17.8441 4.91125H17.8153H12.1014H12.0725C11.9289 4.91125 11.8125 5.02766 11.8125 5.17125V10.3138C11.8125 10.4574 11.9289 10.5738 12.0725 10.5738H12.1014H13.1085H13.1373C13.2808 10.5738 13.3972 10.4575 13.3973 10.314L13.4003 7.35081L17.6184 11.1471L18.437 11.8838C18.5541 11.9892 18.7325 11.9883 18.8482 11.8814L20.9043 9.98144L26.0944 14.2323L26.0978 14.235C26.2218 14.3366 26.4035 14.3236 26.5118 14.2053L27.226 13.4253Z" fill="#EFF0F2"/>
<path d="M9.50329 14.3946C9.41136 14.495 9.42079 14.6528 9.52201 14.7439L16.1702 20.7239C16.2818 20.8243 16.4508 20.8278 16.5675 20.7334L17.8674 19.6817L22.5786 23.9217H18.7008H18.6718C18.5279 23.9217 18.4114 24.0387 18.4119 24.1827L18.416 25.225C18.4165 25.3683 18.5328 25.4841 18.6761 25.4841H18.7049H25.2527H25.2816C25.4252 25.4841 25.5416 25.3677 25.5416 25.2241V19.331C25.5416 19.1874 25.4252 19.071 25.2816 19.071H25.2527H24.0986H24.0698C23.9263 19.071 23.8099 19.1873 23.8098 19.3308L23.8063 22.818L18.9008 18.403L17.9627 17.5588C17.8448 17.4526 17.6646 17.4543 17.5492 17.5632L16.372 18.6755L10.7516 13.4847C10.6287 13.3711 10.4348 13.3773 10.3218 13.5008L9.50329 14.3946Z" fill="#4F5661"/>
</g>
</g>
<defs>
<clipPath id="clip0_13129_1280">
<rect width="26" height="26" fill="white"/>
</clipPath>
</defs>
</svg>
