<svg width="300" height="301" viewBox="0 0 300 301" fill="none" xmlns="http://www.w3.org/2000/svg">
<path d="M59.2092 145.27L132.848 146.956" stroke="#EBEBEB" stroke-width="2" stroke-miterlimit="10"/>
<path d="M208.387 203.438L164.09 146.961" stroke="#EBEBEB" stroke-width="2" stroke-miterlimit="10"/>
<path d="M90.8723 54.8293L138.708 127.526" stroke="#EBEBEB" stroke-width="2" stroke-miterlimit="10"/>
<path d="M59.2092 228.402L134.767 161.589" stroke="#EBEBEB" stroke-width="2" stroke-miterlimit="10"/>
<path d="M184.3 145.27H254.501" stroke="#EBEBEB" stroke-width="2" stroke-miterlimit="10"/>
<path d="M102.323 54.252C104.303 45.9607 99.1872 37.6339 90.896 35.6536C82.6047 33.6733 74.2779 38.7893 72.2976 47.0806C70.3173 55.3719 75.4333 63.6986 83.7246 65.679C92.0158 67.6593 100.343 62.5432 102.323 54.252Z" fill="#EBEBEB"/>
<path d="M82.6565 48.4304C82.6565 51.113 84.8309 53.2874 87.5135 53.2874C90.1961 53.2874 92.3705 51.113 92.3705 48.4304C92.3705 45.7478 90.1961 43.5734 87.5135 43.5734C84.8309 43.5728 82.6565 45.7478 82.6565 48.4304Z" fill="white"/>
<path d="M79.1201 61.8283V63.8317C80.5073 64.6933 82.0487 65.3521 83.7233 65.7583C88.0529 66.8161 92.3969 66.0037 95.9069 63.8245V61.8277C95.9069 57.2035 92.1515 53.4343 87.5135 53.4343C82.8755 53.4343 79.1201 57.2041 79.1201 61.8283Z" fill="white"/>
<path d="M258.75 161.643C264.299 155.265 269.493 148.266 268.738 140.557C268.235 135.555 264.787 130.583 258.75 130.583C252.698 130.583 249.25 135.556 248.747 140.557C247.978 148.266 253.186 155.265 258.75 161.643ZM253.261 140.63C253.261 137.612 255.717 135.17 258.751 135.17C261.769 135.17 264.211 137.612 264.211 140.63C264.211 143.664 261.769 146.105 258.751 146.105C255.717 146.105 253.261 143.664 253.261 140.63Z" fill="#EBEBEB"/>
<path d="M239.968 212.08C241.52 216.022 242.395 220.095 242.645 224.313C242.705 224.315 242.753 224.319 242.801 224.319C246.317 224.32 249.832 224.32 253.347 224.319C253.392 224.319 253.436 224.314 253.481 224.311V224.01C253.452 223.733 253.421 223.457 253.394 223.179C253.262 221.737 253.017 220.316 252.677 218.91C252.121 216.595 251.307 214.375 250.269 212.235C250.21 212.11 250.14 212.076 250.009 212.076C246.724 212.08 243.439 212.079 240.154 212.079H239.968V212.08Z" fill="#EBEBEB"/>
<path d="M240.296 239.408H240.469C243.729 239.408 246.99 239.407 250.25 239.412C250.379 239.412 250.438 239.37 250.493 239.254C251.648 236.854 252.464 234.342 252.963 231.727C253.205 230.468 253.373 229.197 253.453 227.916C253.456 227.874 253.471 227.83 253.481 227.786V227.487C253.427 227.482 253.373 227.475 253.318 227.475C249.824 227.475 246.327 227.475 242.832 227.475C242.639 227.475 242.648 227.475 242.634 227.67C242.568 228.54 242.51 229.411 242.427 230.279C242.295 231.66 242.06 233.026 241.761 234.378C241.4 236.035 240.928 237.66 240.345 239.251C240.329 239.298 240.316 239.345 240.296 239.408Z" fill="#EBEBEB"/>
<path d="M198.426 242.562C198.461 242.622 198.485 242.667 198.512 242.71C199.341 244.016 200.315 245.209 201.334 246.369C202.578 247.786 203.966 249.042 205.467 250.179C206.947 251.299 208.516 252.273 210.178 253.098C211.778 253.893 213.438 254.539 215.155 255.034C216.516 255.427 217.899 255.716 219.301 255.918C219.437 255.937 219.574 255.964 219.709 255.987H219.949C220.018 255.942 220.088 255.897 220.179 255.84C220.081 255.77 219.999 255.709 219.915 255.653C216.863 253.563 214.241 251.032 212.065 248.039C210.841 246.357 209.772 244.582 208.857 242.715C208.802 242.601 208.739 242.56 208.61 242.561C205.274 242.564 201.938 242.563 198.604 242.563H198.426V242.562Z" fill="#EBEBEB"/>
<path d="M208.386 224.305H222.37V212.086C222.314 212.083 222.261 212.079 222.209 212.079C218.624 212.079 215.038 212.08 211.453 212.076C211.333 212.076 211.28 212.113 211.233 212.221C210.225 214.524 209.487 216.913 209.009 219.382C208.761 220.665 208.575 221.957 208.47 223.259C208.444 223.604 208.415 223.946 208.386 224.305Z" fill="#EBEBEB"/>
<path d="M208.47 227.566C208.484 227.855 208.487 228.142 208.512 228.429C208.574 229.11 208.62 229.791 208.716 230.468C208.848 231.404 208.991 232.341 209.178 233.269C209.59 235.314 210.206 237.299 210.99 239.233C211.042 239.362 211.1 239.413 211.247 239.413C214.917 239.407 218.587 239.407 222.257 239.407H222.455V227.566H208.47Z" fill="#EBEBEB"/>
<path d="M225.523 212.158V224.396H239.179C239.159 224.085 239.15 223.782 239.119 223.48C239.049 222.796 238.993 222.108 238.885 221.43C238.718 220.393 238.539 219.356 238.317 218.329C237.869 216.255 237.193 214.251 236.344 212.306C236.293 212.19 236.231 212.156 236.111 212.156C232.64 212.16 229.17 212.159 225.699 212.159H225.523V212.158Z" fill="#EBEBEB"/>
<path d="M225.509 227.728C225.512 231.564 225.512 235.4 225.512 239.235V239.408H225.695C229.272 239.408 232.847 239.407 236.423 239.412C236.552 239.412 236.611 239.371 236.662 239.251C237.488 237.257 238.124 235.203 238.522 233.084C238.726 231.997 238.883 230.899 239.02 229.803C239.111 229.086 239.131 228.361 239.18 227.638C239.182 227.62 239.177 227.599 239.174 227.562C239.121 227.559 239.069 227.555 239.016 227.555C234.571 227.555 230.126 227.556 225.682 227.551C225.541 227.551 225.509 227.593 225.509 227.728Z" fill="#EBEBEB"/>
<path d="M193.558 224.392H205.016C205.265 220.156 206.128 216.055 207.687 212.079H207.508C204.008 212.079 200.507 212.08 197.006 212.076C196.88 212.076 196.815 212.11 196.756 212.226C195.53 214.66 194.65 217.214 194.114 219.887C193.831 221.307 193.652 222.739 193.558 224.183C193.553 224.25 193.558 224.314 193.558 224.392Z" fill="#EBEBEB"/>
<path d="M193.547 227.475C193.56 227.751 193.567 228.015 193.586 228.276C193.661 229.312 193.783 230.341 193.963 231.363C194.384 233.742 195.097 236.032 196.069 238.243C196.224 238.599 196.394 238.949 196.553 239.302C196.589 239.383 196.634 239.411 196.723 239.411C200.233 239.408 203.743 239.408 207.252 239.408C207.286 239.408 207.319 239.403 207.366 239.401C207.238 239.034 207.112 238.678 206.989 238.321C206.369 236.499 205.901 234.636 205.571 232.74C205.331 231.363 205.161 229.978 205.081 228.583C205.06 228.255 205.039 227.925 205.025 227.597C205.022 227.509 204.998 227.466 204.905 227.475C204.869 227.478 204.835 227.475 204.8 227.475H193.547Z" fill="#EBEBEB"/>
<path d="M198.74 208.96C198.747 208.976 198.755 208.991 198.762 209.008H198.908C202.249 209.008 205.589 209.007 208.93 209.01C209.049 209.01 209.114 208.98 209.171 208.867C210.522 206.202 212.161 203.729 214.148 201.496C215.304 200.197 216.59 199.037 217.965 197.977C218.648 197.451 219.358 196.958 220.055 196.452C220.091 196.426 220.126 196.399 220.172 196.365C220.121 196.329 220.081 196.302 220.033 196.269C220.052 196.206 220.072 196.141 220.099 196.053C216.531 196.468 213.149 197.463 209.966 199.095C205.394 201.436 201.601 204.674 198.74 208.96Z" fill="#EBEBEB"/>
<path d="M227.465 255.847C227.59 255.869 227.675 255.904 227.755 255.895C228.858 255.753 229.946 255.534 231.022 255.259C233.038 254.746 234.978 254.028 236.839 253.104C238.971 252.044 240.946 250.747 242.767 249.213C244.056 248.127 245.255 246.949 246.332 245.65C247.141 244.672 247.878 243.642 248.556 242.569C248.57 242.544 248.582 242.518 248.603 242.473H248.438C245.327 242.473 242.218 242.474 239.106 242.47C238.981 242.47 238.924 242.515 238.871 242.62C237.892 244.585 236.761 246.456 235.441 248.211C234.235 249.814 232.882 251.287 231.421 252.662C230.213 253.801 228.927 254.842 227.552 255.774C227.535 255.785 227.521 255.801 227.465 255.847Z" fill="#EBEBEB"/>
<path d="M227.589 196.351C228.014 196.662 228.517 197.016 229.002 197.389C230.644 198.647 232.129 200.073 233.523 201.598C235.399 203.649 236.984 205.902 238.269 208.366C238.349 208.522 238.421 208.682 238.511 208.83C238.536 208.875 238.604 208.917 238.656 208.921C238.824 208.932 238.995 208.924 239.165 208.924H248.288C243.206 201.748 236.379 197.434 227.694 196.116C227.713 196.155 227.733 196.194 227.753 196.233C227.693 196.276 227.633 196.319 227.589 196.351Z" fill="#EBEBEB"/>
<path d="M212.559 242.571C213.859 244.85 215.395 246.927 217.177 248.82C218.764 250.503 220.493 252.017 222.452 253.295V242.571H212.559V242.571Z" fill="#EBEBEB"/>
<path d="M225.527 242.574V253.091C229.544 250.324 232.673 246.814 235.018 242.574H225.527Z" fill="#EBEBEB"/>
<path d="M212.871 208.915H222.369V198.895C220.408 200.179 218.63 201.657 217.04 203.358C215.454 205.054 214.085 206.914 212.871 208.915Z" fill="#EBEBEB"/>
<path d="M225.524 199.208V208.998H234.641C232.331 205.045 229.372 201.735 225.524 199.208Z" fill="#EBEBEB"/>
<path d="M31.1881 163.082H65.1265V129.144H31.1881L31.1881 163.082Z" fill="#EBEBEB"/>
<path d="M32.8501 161.421H63.4651L63.4651 130.805H32.8501V161.421Z" fill="#DBDBDB"/>
<path d="M37.7808 138.111C37.395 140.145 39.1452 141.895 41.1792 141.509C42.3156 141.294 43.2318 140.377 43.4472 139.241C43.8324 137.207 42.0828 135.457 40.0488 135.843C38.913 136.058 37.9962 136.975 37.7808 138.111Z" fill="#C7C7C7"/>
<path d="M41.3386 153.475H63.4648L52.4014 141.068L41.3386 153.475Z" fill="#C7C7C7"/>
<path d="M32.8494 153.475H51.117L41.9832 145.396L32.8494 153.475Z" fill="#A6A6A6"/>
<path d="M63.4644 153.475H32.8494V161.421H63.4644V153.475Z" fill="#A6A6A6"/>
<path d="M85.1998 220.7V249.5H81.5998V256.657L74.539 249.5H35.9998V220.7H85.1998Z" fill="white"/>
<path d="M85.1998 220.7C85.2676 229.395 85.5406 241.264 85.561 249.856L85.1998 249.859L81.5998 249.887L81.9868 249.5L82.0432 256.656L82.0516 257.736L81.2836 256.968L74.1742 249.859L74.5384 250.012C62.9422 250.011 46.8502 250.132 35.4106 250.084L35.4118 249.5L35.4874 220.7L35.4886 220.184C48.0208 220.278 72.6778 220.518 85.1998 220.7ZM85.1998 220.7C72.9376 220.881 48.2554 221.119 35.9998 221.212L36.5116 220.7L36.5872 249.5L35.9998 248.913C47.2156 248.893 63.3748 248.967 74.7556 248.989L74.9032 249.141L81.9154 256.345L81.1558 256.656L81.2128 249.5L81.2158 249.109C81.4504 249.124 84.8878 249.13 85.1998 249.141L84.841 249.5C84.919 241.216 85.0786 229.123 85.1998 220.7Z" fill="#EBEBEB"/>
<path d="M51.5249 235.245C51.5249 236.538 50.4767 237.587 49.1831 237.587C47.8895 237.587 46.8413 236.539 46.8413 235.245C46.8413 233.952 47.8895 232.903 49.1831 232.903C50.4767 232.904 51.5249 233.952 51.5249 235.245Z" fill="#EBEBEB"/>
<path d="M63.2112 235.245C63.2112 236.538 62.163 237.587 60.8694 237.587C59.5764 237.587 58.5276 236.539 58.5276 235.245C58.5276 233.952 59.5758 232.903 60.8694 232.903C62.1624 232.904 63.2112 233.952 63.2112 235.245Z" fill="#EBEBEB"/>
<path d="M74.8967 235.245C74.8967 236.538 73.8485 237.587 72.5549 237.587C71.2619 237.587 70.2131 236.539 70.2131 235.245C70.2131 233.952 71.2613 232.903 72.5549 232.903C73.8485 232.904 74.8967 233.952 74.8967 235.245Z" fill="#EBEBEB"/>
<path d="M176.061 165.158C187.042 154.177 187.042 136.373 176.061 125.392C165.08 114.411 147.277 114.411 136.296 125.392C125.314 136.373 125.314 154.177 136.296 165.158C147.277 176.139 165.08 176.139 176.061 165.158Z" fill="#EBEBEB"/>
<path d="M272.871 220.187C265.435 230.259 257.68 241.947 255.792 254.577C255.769 254.769 256.075 254.83 256.12 254.641C256.983 251.177 258.075 247.813 259.408 244.528C264.297 243.183 269.096 242.078 271.663 237.225C274.282 232.237 273.949 225.733 273.451 220.299C273.417 220.008 273.022 219.994 272.871 220.187Z" fill="#FFC527"/>
<path d="M259.482 244.434C262.823 236.937 267.112 229.41 272.563 223.245C272.599 223.204 272.656 223.264 272.623 223.305C269.054 227.695 266.342 232.477 263.693 237.342C266.156 234.843 268.854 232.603 271.186 229.953C271.232 229.901 271.304 229.976 271.261 230.028C268.945 232.807 266.415 235.827 263.399 237.883C262.588 239.376 261.773 240.874 260.945 242.371C261.148 242.258 261.358 242.157 261.565 242.054C261.602 242.036 261.634 242.09 261.598 242.109C261.367 242.226 261.14 242.348 260.902 242.449C260.51 243.157 260.122 243.866 259.72 244.573C259.63 244.731 259.412 244.593 259.482 244.434Z" fill="#263238"/>
<path d="M261.968 241.819C263.961 240.676 265.883 239.448 267.676 238.008C267.725 237.969 267.795 238.036 267.746 238.078C265.985 239.569 264.106 240.904 262.049 241.96C261.957 242.006 261.876 241.871 261.968 241.819Z" fill="#263238"/>
<path d="M254.932 252.7C254.947 252.853 255.207 252.85 255.203 252.688C255.242 248.529 255.207 244.35 255.27 240.172C256.336 238.021 258.623 236.832 260.213 235.108C261.359 233.865 262.34 232.462 263.179 230.978C265.146 227.459 266.211 223.503 266.621 219.504C267.06 215.055 265.372 200.374 263.496 200.884C262.523 201.148 259.376 208.42 258.541 210.824C257.174 214.779 256.212 218.877 255.581 223.012C254.061 232.8 254.188 242.85 254.932 252.7Z" fill="#FFC527"/>
<path d="M254.902 234.757C254.909 234.752 254.915 234.747 254.921 234.741C255.149 229.478 256.334 224.164 257.444 219.06C258.64 213.561 260.038 208.383 262.867 203.478C262.92 203.387 263.055 203.467 263.008 203.56C261.082 207.355 259.705 211.383 258.651 215.52C258.841 215.223 259.07 214.942 259.268 214.663C259.345 214.552 259.528 214.656 259.451 214.77C259.174 215.184 258.923 215.667 258.567 216.018C258.555 216.03 258.542 216.031 258.53 216.035C257.556 219.965 256.856 223.986 256.258 227.996C256.303 227.945 256.346 227.89 256.391 227.841C256.422 227.808 256.474 227.85 256.453 227.888C256.379 228.021 256.295 228.153 256.214 228.286C255.913 230.322 255.634 232.353 255.353 234.367C258.977 231.269 262.072 227.617 263.818 223.119C263.826 223.098 263.86 223.107 263.852 223.128C262.142 227.795 259.446 231.943 255.295 234.775C255.22 235.318 255.143 235.86 255.067 236.4C255.05 236.512 254.872 236.482 254.872 236.374C254.874 235.894 254.897 235.414 254.915 234.933C254.864 234.887 254.839 234.81 254.902 234.757Z" fill="#263238"/>
<path d="M256.609 227.132C259.379 222.999 261.966 218.984 263.993 214.415C264.015 214.364 264.103 214.401 264.083 214.453C262.376 218.993 259.984 223.593 256.748 227.239C256.682 227.313 256.553 227.215 256.609 227.132Z" fill="#263238"/>
<path d="M260.29 213.394C261.438 211.364 262.648 209.388 263.727 207.318C263.758 207.261 263.837 207.311 263.813 207.368C262.907 209.484 261.824 211.632 260.467 213.497C260.391 213.601 260.224 213.511 260.29 213.394Z" fill="#263238"/>
<path d="M259.842 214.276C259.865 214.276 259.865 214.312 259.842 214.312C259.819 214.312 259.819 214.276 259.842 214.276Z" fill="#263238"/>
<path d="M252.117 240.672C252.046 243.427 251.749 246.184 251.145 248.866C251.188 249.162 251.23 249.458 251.273 249.763C252.142 246.778 252.596 243.718 252.739 240.63C252.787 240.544 252.806 240.451 252.752 240.347C252.752 240.347 252.752 240.347 252.751 240.338C252.908 236.214 252.526 232.043 251.833 227.962C250.546 220.318 247.731 212.982 242.4 207.253C242.231 207.076 241.894 207.168 241.811 207.374C239.66 212.844 240.411 219.37 242.243 224.827C243.241 227.767 244.664 230.59 246.471 233.117C248.3 235.688 250.631 237.863 252.117 240.672Z" fill="#FFC527"/>
<path d="M243.031 209.812C248.083 218.012 251.599 227.734 252.029 237.42C252.037 237.591 251.747 237.636 251.723 237.461C251.604 236.591 251.471 235.728 251.331 234.87C251.328 234.867 251.325 234.869 251.323 234.867C249.232 232.864 247.087 230.752 245.59 228.251C245.564 228.207 245.628 228.156 245.662 228.195C247.481 230.274 249.177 232.402 251.231 234.256C250.869 232.114 250.441 230.007 249.933 227.93C249.797 227.775 249.666 227.616 249.534 227.46C249.446 227.358 249.592 227.208 249.684 227.31C249.724 227.355 249.764 227.4 249.805 227.445C249.089 224.593 248.215 221.801 247.163 219.058C245.877 217.524 244.439 216.198 243.502 214.35C243.479 214.305 243.541 214.27 243.569 214.311C244.322 215.367 245.051 216.43 245.906 217.411C246.246 217.802 246.62 218.167 246.973 218.548C245.824 215.62 244.459 212.749 242.837 209.926C242.763 209.8 242.955 209.689 243.031 209.812Z" fill="#263238"/>
<path d="M244.053 219.927C245.686 222.125 247.547 224.222 249.064 226.494C249.108 226.559 249.013 226.626 248.959 226.575C247.008 224.745 245.358 222.246 243.942 219.992C243.898 219.921 244.005 219.863 244.053 219.927Z" fill="#263238"/>
<path d="M249.294 227.002L249.363 227.072C249.412 227.121 249.337 227.196 249.288 227.147L249.219 227.077C249.17 227.029 249.245 226.954 249.294 227.002Z" fill="#263238"/>
<path d="M235.115 225.575C235.521 229.794 237.74 234.833 240.447 238.083C241.646 239.521 243.101 240.621 244.771 241.457C246.643 242.383 248.603 243.45 250.541 244.21C251.446 246.522 252.139 248.944 252.584 251.467C252.646 251.256 252.709 251.036 252.771 250.825C251.528 240.144 244.616 231.015 235.775 225.155C235.457 224.944 235.08 225.215 235.115 225.575Z" fill="#FFC527"/>
<path d="M238.17 228.731C238.108 228.676 238.192 228.564 238.26 228.615C242.945 232.085 247.166 237.145 249.524 242.497C249.589 242.643 249.388 242.772 249.305 242.626C248.894 241.906 248.475 241.205 248.048 240.517C248.046 240.517 248.045 240.519 248.042 240.519C246.025 240.139 244.114 238.719 242.616 237.37C242.575 237.334 242.635 237.274 242.676 237.31C243.458 238 244.297 238.63 245.229 239.104C246.052 239.521 246.937 239.785 247.793 240.12C247.045 238.933 246.266 237.795 245.452 236.69C243.28 235.95 241.213 234.616 239.388 233.281C239.33 233.239 239.381 233.145 239.445 233.183C241.305 234.303 243.139 235.288 245.081 236.196C243.858 234.576 242.534 233.041 241.102 231.556C240.416 231.195 239.721 230.83 239.056 230.443C239.002 230.411 239.038 230.319 239.099 230.34C239.629 230.516 240.168 230.793 240.67 231.111C239.872 230.304 239.05 229.508 238.17 228.731Z" fill="#263238"/>
<path d="M238.358 232.419C238.48 232.496 238.59 232.566 238.698 232.661C238.73 232.69 238.689 232.731 238.656 232.717C238.526 232.66 238.42 232.592 238.301 232.516C238.24 232.477 238.297 232.38 238.358 232.419Z" fill="#263238"/>
<path d="M266.567 274.597H242.342L244.297 252.537L244.727 247.671H264.182L264.611 252.537L266.567 274.597Z" fill="#455A64"/>
<path d="M264.611 252.537H244.297L244.727 247.671H264.182L264.611 252.537Z" fill="#263238"/>
<path d="M265.34 244.27H243.568V249.085H265.34V244.27Z" fill="#455A64"/>
<path d="M189.441 274.57H128.202C127.698 272.599 127.209 270.659 126.72 268.75C126.162 266.554 125.61 264.412 125.083 262.324C124.967 261.858 124.842 261.393 124.726 260.935C124.322 259.336 123.927 257.776 123.539 256.263C123.306 255.34 123.073 254.432 122.848 253.531C122.607 252.616 122.382 251.715 122.157 250.839C122.095 250.606 122.041 250.373 121.979 250.148C121.916 249.892 121.854 249.643 121.793 249.395C121.715 249.085 121.637 248.79 121.56 248.487V248.479C121.475 248.161 121.397 247.851 121.319 247.54C121.164 246.951 121.017 246.369 120.877 245.802C120.66 244.964 120.45 244.141 120.248 243.342C120.163 242.993 120.069 242.644 119.984 242.302C119.837 241.744 119.697 241.2 119.565 240.665C119.472 240.308 119.386 239.959 119.301 239.617C118.936 238.213 118.602 236.893 118.292 235.66C118.207 235.334 118.129 235.016 118.044 234.705C117.912 234.17 117.78 233.658 117.656 233.161C117.57 232.851 117.492 232.548 117.423 232.253C117.151 231.198 116.903 230.235 116.693 229.389C116.631 229.164 116.577 228.947 116.522 228.738C116.382 228.179 116.25 227.682 116.142 227.24C116.095 227.062 116.057 226.891 116.01 226.735C115.963 226.557 115.925 226.394 115.886 226.246C115.862 226.138 115.832 226.029 115.808 225.936C115.769 225.781 115.73 225.642 115.7 225.517C115.684 225.448 115.668 225.385 115.653 225.331C115.56 224.967 115.513 224.781 115.513 224.781H175.122C175.122 224.781 177.085 231.548 180.228 242.459C180.865 244.678 181.556 247.077 182.292 249.622C184.381 256.892 186.818 265.382 189.441 274.57Z" fill="#37474F"/>
<path d="M138.229 274.57H136.7C134.434 265.188 132.223 255.79 130.112 246.376C129.599 244.087 129.095 241.798 128.591 239.5C128.544 239.283 128.498 239.074 128.451 238.856C128.428 238.74 128.599 238.693 128.629 238.81C128.653 238.879 128.668 238.95 128.692 239.019C129.382 241.479 130.073 243.947 130.748 246.415C133.333 255.774 135.808 265.165 138.229 274.57Z" fill="#263238"/>
<path d="M173.19 224.779L170.559 237.948L168.402 248.751L164.731 267.159L164.351 269.044L163.722 272.187L163.248 274.57H128.194C127.697 272.591 127.2 270.651 126.72 268.749C126.161 266.553 125.61 264.411 125.082 262.323C124.966 261.858 124.842 261.392 124.725 260.934C124.322 259.335 123.926 257.776 123.538 256.263C123.305 255.339 123.072 254.431 122.847 253.531C122.607 252.615 122.382 251.715 122.157 250.838C122.094 250.605 122.04 250.372 121.978 250.147C121.916 249.891 121.854 249.643 121.792 249.394C121.715 249.084 121.637 248.789 121.559 248.487V248.479C121.474 248.161 121.396 247.85 121.319 247.54C121.163 246.95 121.016 246.368 120.876 245.802C120.659 244.963 120.45 244.141 120.248 243.342C120.155 242.985 120.069 242.643 119.984 242.302C119.836 241.743 119.696 241.2 119.564 240.664C119.471 240.307 119.385 239.958 119.3 239.617C118.935 238.212 118.602 236.893 118.292 235.659C118.206 235.333 118.128 235.015 118.043 234.705C117.911 234.169 117.779 233.657 117.655 233.16C117.57 232.85 117.492 232.547 117.422 232.252C117.15 231.197 116.903 230.235 116.693 229.389C116.63 229.164 116.576 228.946 116.522 228.737C116.382 228.178 116.25 227.682 116.141 227.239C116.094 227.061 116.056 226.89 116.009 226.735C115.962 226.556 115.924 226.393 115.885 226.246C115.862 226.137 115.831 226.029 115.808 225.936C115.769 225.781 115.73 225.641 115.699 225.517C115.683 225.447 115.668 225.385 115.652 225.331C115.559 224.966 115.512 224.78 115.512 224.78H173.19V224.779Z" fill="#263238"/>
<path d="M173.198 224.755C173.198 224.755 173.198 224.763 173.198 224.779C173.175 225.105 172.95 228.659 172.376 234.084C172.212 235.666 172.019 237.405 171.794 239.268C171.444 242.209 171.01 245.453 170.474 248.883C169.559 254.866 168.363 261.393 166.811 267.772C166.26 270.07 165.655 272.343 165.011 274.57L86.4863 274.598C86.4863 274.598 85.4963 268.559 85.6337 266.79C86.3777 257.21 91.9763 224.779 91.9763 224.779L161.775 224.755H173.198Z" fill="#37474F"/>
<path d="M173.035 231.825C172.95 234.58 172.834 237.327 172.655 240.067C172.469 243.039 172.197 246.004 171.809 248.968C171.801 249.077 171.785 249.186 171.77 249.294C171.405 252.072 170.994 254.843 170.52 257.606C170.078 260.182 169.753 262.961 168.611 265.343C168.185 266.243 167.572 267.105 166.811 267.772C166.105 268.393 165.282 268.858 164.351 269.044C164.203 269.083 164.048 269.106 163.893 269.122C163.854 269.13 163.808 269.122 163.761 269.13C163.815 269.169 163.854 269.215 163.846 269.293C163.815 270.216 163.838 271.155 163.738 272.071C163.73 272.11 163.73 272.148 163.722 272.187C163.629 272.986 163.481 273.778 163.334 274.57H162.014C162.022 274.554 162.022 274.539 162.03 274.523C162.263 273.654 162.456 272.777 162.674 271.9C162.906 271.008 163.202 270.13 163.411 269.223C163.419 269.184 163.45 269.161 163.474 269.137C161.797 269.161 160.105 268.268 159.5 266.646C159.058 265.467 159.26 264.24 159.438 263.03C159.679 261.454 159.911 259.879 160.152 258.304C160.602 255.409 161.184 252.546 161.696 249.666C161.774 249.232 161.852 248.79 161.929 248.355C162.961 242.496 164.04 236.636 165.336 230.831C165.383 230.59 165.437 230.35 165.491 230.109C165.523 229.947 165.787 229.993 165.771 230.148C165.732 230.536 165.693 230.932 165.647 231.32C165.422 233.547 165.158 235.767 164.848 237.979C164.475 240.579 164.219 243.194 163.854 245.794C163.73 246.679 163.606 247.563 163.474 248.448C162.876 252.724 162.255 257 161.525 261.261C161.184 263.239 159.95 266.786 162.798 267.399C163.504 267.555 164.156 267.438 164.731 267.159C165.995 266.53 166.919 265.087 167.377 263.814C168.184 261.548 168.472 259.049 168.89 256.69C169.356 254.082 169.768 251.475 170.132 248.859V248.851C170.597 245.584 171.078 242.325 171.591 239.065C171.847 237.405 172.111 235.744 172.374 234.083C172.499 233.314 172.623 232.546 172.747 231.778C172.779 231.616 173.035 231.663 173.035 231.825Z" fill="#263238"/>
<path d="M104.944 252.282C108.148 252.268 111.337 251.803 114.436 251.005C115.866 250.636 117.28 250.179 118.682 249.719C120.029 249.277 121.426 248.734 122.512 247.797C124.67 245.935 125.675 243.004 126.612 240.403C127.67 237.464 128.436 234.472 129.1 231.424C129.133 231.274 129.353 231.324 129.357 231.466C129.46 234.883 128.971 238.365 128.065 241.659C127.292 244.472 126.25 247.612 123.977 249.584C121.585 251.658 118.338 252.387 115.277 252.765C111.822 253.192 108.376 253.09 104.935 252.622C104.722 252.594 104.719 252.282 104.944 252.282Z" fill="#263238"/>
<path d="M99.6126 231.515C99.4416 235.822 94.9872 258.296 94.6584 262.595C94.4472 265.359 95.5146 274.571 95.5146 274.571H94.4202C94.4202 274.571 93.5946 266.352 93.705 262.549C93.8298 258.24 98.9064 235.807 99.24 231.508C99.2634 231.267 99.6204 231.282 99.6126 231.515Z" fill="#263238"/>
<path d="M162.966 134.81C192.55 161.476 219.975 190.672 222.122 205.578C225.095 226.214 212.402 231.937 206.717 231.993C191.234 232.145 163.098 169.396 153.312 145.438C143.81 122.175 156.47 128.955 162.966 134.81Z" fill="#D18F67"/>
<path d="M207.62 177.481L174.725 195.363C174.725 195.363 154.272 157.585 149.56 140.073C144.848 122.56 151.887 123.067 167.366 136.687C182.845 150.307 207.62 177.481 207.62 177.481Z" fill="#C7C7C7"/>
<path d="M207.62 177.481L174.725 195.363C174.725 195.363 154.272 157.585 149.56 140.073C144.848 122.56 151.887 123.067 167.366 136.687C182.845 150.307 207.62 177.481 207.62 177.481Z" fill="#FFC527"/>
<path opacity="0.1" d="M149.565 140.068C154.275 157.585 174.727 195.369 174.727 195.369L204.68 179.079L149.519 127.234C147.678 128.643 147.6 132.806 149.565 140.068Z" fill="black"/>
<path d="M200.849 172.44C188.165 181.019 175.872 186.599 173.409 188.016C173.293 188.084 173.198 187.888 173.319 187.827C175.808 186.562 189.308 178.158 200.75 172.231C200.882 172.163 200.971 172.358 200.849 172.44Z" fill="#263238"/>
<path d="M182.143 244.693L85.8137 244.971C85.8137 244.971 94.2179 172.492 129.584 129.679C137.771 119.769 150.953 125.155 156.507 130.414C170.617 143.774 182.414 244.344 182.143 244.693Z" fill="#FFC527"/>
<path d="M149.589 125.979C145.471 128.949 141.518 132.181 137.509 135.286C135.444 136.879 133.43 138.575 131.268 140.035C129.541 141.201 127.552 142.17 125.423 142.049C123.976 141.96 122.676 141.38 121.592 140.506C121.662 140.392 121.739 140.277 121.815 140.162C122.262 140.519 122.746 140.832 123.269 141.067C125.398 142.043 127.712 141.558 129.694 140.468C131.887 139.263 133.818 137.555 135.788 136.031C137.943 134.361 140.097 132.691 142.252 131.014C144.483 129.287 146.695 127.426 149.009 125.736C149.206 125.813 149.397 125.896 149.589 125.979ZM135.329 175.612C137.458 172.565 138.497 168.472 137.165 164.896C135.966 161.695 133.104 159.592 129.853 158.808C126.525 158.005 122.867 158.451 119.813 160.006C115.759 162.066 112.814 165.712 109.167 168.351C108.186 169.065 107.064 169.721 105.872 170.231C105.763 170.486 105.661 170.734 105.559 170.983C109.479 169.498 112.399 166.375 115.535 163.704C117.212 162.282 119.009 160.911 121.056 160.07C122.758 159.375 124.587 159.018 126.423 159.006C129.948 158.974 133.71 160.287 135.724 163.334C138.006 166.783 137.337 171.251 135.258 174.624C129.987 183.166 118.321 182.624 109.601 182.783C106.586 182.841 103.596 183.045 100.676 183.618C100.587 183.847 100.504 184.077 100.428 184.307C103.749 183.631 107.153 183.447 110.589 183.402C119.086 183.293 129.866 183.427 135.329 175.612ZM137.458 154.014C144.974 154.938 152.751 153.039 159.119 148.978C160.834 147.882 162.447 146.632 163.919 145.237C163.849 145.02 163.779 144.81 163.703 144.606C162.153 146.097 160.445 147.417 158.622 148.558C152.044 152.682 143.922 154.492 136.235 153.173C129.828 152.077 124.085 148.143 117.869 146.403C117.748 146.595 117.633 146.792 117.512 146.983C120.221 147.748 122.829 148.941 125.372 150.094C129.266 151.854 133.181 153.485 137.458 154.014ZM130.312 212.47C132.887 209.863 134.468 206.484 134.672 202.812C134.857 199.478 133.799 195.953 131.147 193.779C128.106 191.299 123.969 191.185 120.368 192.351C116.211 193.696 112.992 196.571 110.175 199.81C107.102 203.341 104.418 207.364 100.683 210.252C98.1454 212.215 94.9456 213.822 91.6756 214.032C91.6246 214.223 91.5803 214.42 91.5353 214.612C93.1865 214.529 94.8436 214.121 96.3796 213.477C100.478 211.756 103.583 208.671 106.388 205.311C109.346 201.786 112.106 197.834 115.956 195.201C119.322 192.9 123.816 191.395 127.851 192.677C131.612 193.863 133.785 197.343 134.04 201.162C134.295 204.98 132.88 208.735 130.299 211.533C127.303 214.797 123.248 216.824 119.15 218.335C114.407 220.088 109.479 221.407 104.564 222.568C99.3053 223.798 92.9813 224.869 88.5701 228.229C88.5065 228.554 88.4429 228.866 88.3853 229.185C92.7965 225.488 99.5597 224.391 105.023 223.104C109.919 221.95 114.827 220.636 119.551 218.871C123.472 217.41 127.341 215.479 130.312 212.47ZM124.128 228.406C119.889 228.12 116.275 230.772 113.878 234.035C111.392 237.426 109.919 241.417 107.618 244.91H108.313C109.25 243.438 110.06 241.876 110.844 240.365C112.877 236.419 115.115 232.002 119.297 229.962C121.254 229.012 123.587 228.61 125.703 229.241C127.685 229.84 129.171 231.364 129.993 233.225C131.606 236.884 130.994 240.957 131.217 244.827C131.217 244.833 131.217 244.833 131.217 244.839H131.81C131.625 241.677 131.95 238.483 131.262 235.354C130.471 231.727 128.049 228.668 124.128 228.406ZM167.807 242.278C166.367 238.357 166.354 234.099 166.551 229.987C167.036 219.673 169.063 209.257 167.444 198.956C166.207 191.058 162.809 183.051 156.122 178.276C152.724 175.854 148.058 174.292 144.189 176.593C140.912 178.531 139.191 182.452 139.146 186.156C139.095 190.95 141.326 195.437 143.672 199.485C145.992 203.488 148.657 207.281 151.003 211.272C153.317 215.205 155.331 219.387 156.211 223.9C157.027 228.075 156.849 232.423 155.81 236.541C155.083 239.434 153.923 242.227 152.367 244.783L153.069 244.776C153.387 244.241 153.687 243.693 153.968 243.144C157.761 235.724 158.36 226.991 155.51 219.156C152.342 210.436 145.974 203.436 142.041 195.105C140.033 190.846 138.732 185.779 140.836 181.297C141.69 179.474 143.042 177.849 144.839 176.899C146.949 175.777 149.41 175.854 151.628 176.58C155.778 177.938 159.233 181.285 161.617 184.848C163.937 188.329 165.429 192.307 166.328 196.374C168.534 206.388 166.793 216.683 166.079 226.761C165.767 231.109 165.499 235.558 166.43 239.855C166.793 241.551 167.379 243.234 168.253 244.732H169.018C168.534 243.973 168.126 243.145 167.807 242.278ZM157.353 168C159.367 172.086 163.447 174.305 167.495 175.962C168.993 176.581 170.51 177.148 171.995 177.786C171.957 177.575 171.912 177.371 171.874 177.167C169.522 176.173 167.125 175.28 164.83 174.126C160.922 172.163 156.881 168.625 156.938 163.869C156.989 159.502 161.012 156.405 164.989 155.614C165.633 155.487 166.277 155.41 166.914 155.378C166.863 155.206 166.819 155.028 166.774 154.855C164.078 155.021 161.483 155.882 159.36 157.731C156.333 160.377 155.574 164.412 157.353 168Z" fill="white"/>
<path d="M122.821 132.912C94.7693 154.451 65.5175 191.003 65.0807 212.11C64.6493 232.954 76.3559 230.876 78.3281 230.262C99.1709 223.774 124.298 165.954 133.589 142.408C142.814 119.034 129.758 127.586 122.821 132.912Z" fill="#D18F67"/>
<path d="M77.7527 174.923L110.322 193.39C110.322 193.39 131.448 155.984 136.472 138.558C141.497 121.133 134.45 121.514 118.729 134.855C103.008 148.195 77.7527 174.923 77.7527 174.923Z" fill="#FFC527"/>
<path d="M84.612 170.003C97.1406 178.808 109.332 184.606 111.769 186.068C111.884 186.137 111.983 185.944 111.863 185.88C109.397 184.571 96.0492 175.927 84.7152 169.797C84.5838 169.726 84.4914 169.919 84.612 170.003Z" fill="#263238"/>
<path d="M108.229 192.118C108.442 192.138 109.892 192.842 110.192 192.994C113.322 186.77 112.753 188.197 115.94 182.002C117.503 178.966 119.069 175.932 120.626 172.893C122.245 169.733 123.695 166.442 125.485 163.376C125.537 163.285 125.66 163.351 125.627 163.446C124.589 166.441 123.185 169.339 121.855 172.224C122.15 171.777 122.429 171.319 122.75 170.888C123.468 169.92 124.172 168.954 124.812 167.933C124.91 167.776 125.171 167.904 125.071 168.062C124.46 169.036 123.922 170.038 123.388 171.057C122.852 172.077 122.261 173.049 121.656 174.03C121.073 174.974 120.428 175.872 119.779 176.772C119.7 176.882 119.622 176.994 119.543 177.104C118.691 178.91 117.863 180.727 116.969 182.514C113.84 188.774 110.611 193.694 110.501 193.665C110.067 193.552 108.316 192.423 108.14 192.294C108.051 192.228 108.139 192.11 108.229 192.118Z" fill="#263238"/>
<path d="M205.286 231.263C195.632 229.851 190.164 211.909 179.444 183.353C177.562 178.342 202.495 149.646 205.879 154.262C210.142 160.076 221.441 192.317 222.568 201.08C224.788 218.358 216.559 232.912 205.286 231.263Z" fill="#D18F67"/>
<path d="M190.436 212.251C188.233 207.584 186.262 202.816 184.338 198.03C182.536 193.203 180.499 188.412 179.444 183.354C180.955 188.278 183.042 193.007 184.895 197.81C186.545 202.047 188.915 208.029 190.436 212.251Z" fill="#263238"/>
<path d="M214.825 174.966C213.473 165.165 210.705 151.492 207.202 148.627C203.525 145.621 190.175 135.571 186.32 134.236C182.465 132.901 165.277 126.357 162.119 128.184C159.591 129.646 162.584 136.295 170.764 139.482C177.954 142.283 181.654 144.895 183.709 145.784C185.806 146.691 190.847 153.479 189.471 156.483C188.66 158.254 183.508 160.331 180.305 158.882C177.102 157.433 176.31 151.092 172.651 148.099C168.991 145.108 162.535 145.471 162.161 147.214C161.788 148.957 163.92 149.772 167.222 155.698C169.346 159.508 169.488 168.652 174.305 175.209C176.725 178.503 180.944 187.272 180.944 187.272L214.825 174.966Z" fill="#D18F67"/>
<path d="M169.236 145.397C168.105 145.14 166.875 144.797 166.035 143.947C165.68 143.588 165.406 143.14 165.308 142.64C165.256 142.376 165.249 142.087 165.284 141.822C165.317 141.575 165.387 141.196 165.598 141.04C165.662 140.993 165.565 140.914 165.532 140.98C165.459 141.124 165.328 141.237 165.238 141.37C165.161 141.483 165.102 141.61 165.054 141.738C164.955 141.997 164.911 142.26 164.917 142.537C164.929 143.138 165.171 143.707 165.555 144.166C166.465 145.255 167.872 145.542 169.229 145.493C169.284 145.491 169.288 145.409 169.236 145.397Z" fill="#263238"/>
<path d="M207.202 148.627C204.091 143.734 196.123 134.911 188.229 131.877C182.893 129.826 164.52 138.757 165.054 142.269C165.588 145.78 168.724 145.794 173.37 145.244C175.062 145.044 184.015 141.836 185.539 143.715C187.731 146.415 190.51 155.64 190.51 155.64L207.202 148.627Z" fill="#D18F67"/>
<path d="M165.51 140.898C167.782 137.141 172.771 135.14 177.735 133.559C177.812 133.534 177.855 133.652 177.778 133.677C176.514 134.081 168.425 137.796 165.565 140.957C165.532 140.993 165.487 140.936 165.51 140.898Z" fill="#263238"/>
<path d="M207.202 148.627C204.091 143.734 196.123 134.911 188.228 131.877C182.893 129.826 168.355 141.261 168.888 144.773C169.421 148.284 173.929 148.566 178.912 146.836C180.522 146.277 185.923 142.48 187.447 144.358C189.638 147.058 194.979 153.762 194.979 153.762L207.202 148.627Z" fill="#D18F67"/>
<path d="M191.9 149.61C191.401 148.838 191.23 148.567 190.715 147.803C190.204 147.043 189.679 146.289 189.114 145.569C188.626 144.946 188.15 144.257 187.469 143.832C186.815 143.424 186.022 143.327 185.266 143.397C183.538 143.556 181.977 144.652 180.511 145.492C178.874 146.429 175.48 147.95 172.881 147.673C172.165 147.597 171.46 147.477 170.83 147.115C170.42 146.88 169.868 146.588 169.601 146.134C168.476 144.221 169.886 142.039 171.327 140.495C174.011 137.617 177.622 135.53 181.124 133.816C181.984 133.395 182.854 132.996 183.725 132.597C184.717 132.142 185.749 131.705 186.877 131.698C188.683 131.686 191.641 133.522 192.559 134.078C192.629 134.12 192.68 134.007 192.613 133.965C191.504 133.271 188.755 131.018 185.841 131.163C184.775 131.217 183.778 131.763 182.807 132.181C181.792 132.619 180.789 133.09 179.8 133.584C177.873 134.545 175.997 135.613 174.244 136.865C172.586 138.048 170.82 139.429 169.698 141.154C168.726 142.65 168.434 144.78 169.378 146.352C170.173 147.677 171.872 147.997 172.651 148.098C173.428 148.198 174.172 148.183 174.951 148.077C175.757 147.967 178.703 147.115 179.946 146.62C181.526 145.993 182.95 144.928 184.578 144.438C185.355 144.204 186.208 144.193 186.934 144.594C187.609 144.966 188.171 145.65 188.694 146.202C189.879 147.451 190.664 148.263 191.634 149.693C191.869 150.041 192.11 149.933 191.9 149.61Z" fill="#263238"/>
<path d="M209.511 152.895C208.368 150.568 206.445 140.976 204.597 138.034C202.748 135.093 194.302 124.915 190.354 125.352C185.393 125.902 190.556 134.844 193.151 138.528C195.748 142.212 195.304 148.467 195.304 148.467L209.511 152.895Z" fill="#D18F67"/>
<path d="M189.535 132.421C190.457 133.587 191.274 134.88 192.075 136.131C192.834 137.318 193.714 138.494 194.29 139.783C194.869 141.077 195.124 142.465 195.255 143.869C195.32 144.559 195.341 145.246 195.344 145.94C195.349 146.696 195.28 147.458 195.298 148.213C195.299 148.293 195.176 148.305 195.172 148.224C195.115 146.859 194.872 145.455 194.637 144.111C194.393 142.711 193.975 141.313 193.397 140.015C192.24 137.416 190.544 135.098 189.363 132.511C189.316 132.406 189.469 132.338 189.535 132.421Z" fill="#263238"/>
<path d="M195.241 149.517C195.363 153.066 193.744 156.463 192.016 159.48C190.813 161.507 189.179 163.203 187.976 165.211C186.115 168.181 185.141 171.57 184.8 175.061C184.721 170.32 186.546 165.676 189.509 162.012C190.966 160.176 192.219 158.258 193.208 156.138C194.197 154.049 195.119 151.854 195.241 149.517Z" fill="#263238"/>
<path d="M159.829 135.82C159.69 137.344 159.474 138.86 159.179 140.371C158.914 141.723 158.639 143.076 158.124 144.379C157.199 146.718 155.432 148.882 152.706 149.512C150.101 150.114 147.427 149.296 145.361 147.937C143.104 146.451 141.342 144.339 139.727 142.287C138.729 141.018 137.781 139.71 136.903 138.364C136.458 137.682 136.008 137.003 135.597 136.302C135.187 135.602 134.81 134.883 134.356 134.208C134.32 134.155 134.203 134.194 134.237 134.255C135.112 135.847 137.754 140.895 138.638 142.147C140.245 144.421 142.003 146.748 144.341 148.43C146.551 150.019 149.283 150.975 152.184 150.564C155.044 150.158 157.201 148.218 158.285 145.797C158.95 144.311 159.254 142.698 159.451 141.124C159.672 139.362 159.792 137.587 159.866 135.82C159.866 135.798 159.831 135.799 159.829 135.82Z" fill="#263238"/>
<path d="M150.505 145.098C144.566 144.934 137.238 133.86 135.284 125.943C135.153 125.4 142.156 106.969 143.164 103.173C143.367 102.392 165.471 115.286 165.471 115.286C165.471 115.286 161.014 122.622 159.298 129.251C159.161 129.807 156.246 145.253 150.505 145.098Z" fill="#D18F67"/>
<path d="M165.47 115.282C165.47 115.282 161.013 122.619 159.294 129.249C159.263 129.381 159.075 130.345 158.737 131.74C147.683 127.687 142.317 118.823 139.861 112.819C141.363 108.642 142.756 104.713 143.161 103.176C143.37 102.395 165.47 115.282 165.47 115.282Z" fill="#263238"/>
<path d="M135.958 93.5054C135.958 93.5054 134.456 99.1292 133.353 100.894C132.25 102.66 127.289 103.313 127.289 103.313C127.289 103.313 131.669 106.612 133.177 106.719C134.684 106.826 138.073 103.948 138.073 103.948C138.073 103.948 134.182 109.039 132.085 108.709C130.783 108.505 135.062 109.903 135.062 109.903C135.062 109.903 137.381 110.538 139.361 109.347C141.341 108.155 135.958 93.5054 135.958 93.5054Z" fill="#263238"/>
<path d="M144.164 76.7228C139.282 84.4436 137.073 110.001 141.587 117.069C148.133 127.315 162.17 131.964 171.723 123.352C180.983 115.005 183.272 81.6476 177.92 74.8826C170.035 64.9184 151.375 65.318 144.164 76.7228Z" fill="#D18F67"/>
<path d="M162.999 94.0202C162.224 94.1222 161.493 94.0868 160.716 94.1084C159.84 94.1324 159.145 94.2422 158.372 93.755C157.957 93.4934 157.808 92.789 158.025 92.363C158.529 91.3694 159.595 91.0736 160.649 91.001C161.792 90.9224 162.693 91.1546 163.627 91.814C164.531 92.4524 164.021 93.8858 162.999 94.0202Z" fill="#263238"/>
<path d="M161.72 99.5426C161.717 99.4754 161.574 99.6032 161.565 99.6734C161.357 101.392 160.829 103.325 159.194 103.655C159.144 103.665 159.136 103.752 159.194 103.753C161.123 103.777 161.798 101.204 161.72 99.5426Z" fill="#263238"/>
<path d="M160.466 97.5225C157.748 96.8919 156.686 102.375 159.205 102.96C161.683 103.535 162.745 98.0517 160.466 97.5225Z" fill="#263238"/>
<path d="M171.545 101.198C171.571 101.136 171.662 101.304 171.646 101.373C171.264 103.061 171.109 105.059 172.536 105.921C172.581 105.948 172.56 106.032 172.504 106.013C170.68 105.386 170.912 102.736 171.545 101.198Z" fill="#263238"/>
<path d="M173.406 99.7178C176.178 100.039 175.33 105.56 172.762 105.262C170.235 104.969 171.082 99.4484 173.406 99.7178Z" fill="#263238"/>
<path d="M176.074 96.9008C175.338 96.6296 174.705 96.257 174.004 95.9132C173.214 95.5256 172.545 95.2982 172.086 94.5032C171.838 94.0772 172.035 93.3806 172.426 93.1016C173.338 92.453 174.423 92.6876 175.393 93.1154C176.446 93.5798 177.139 94.2068 177.661 95.2298C178.168 96.2216 177.046 97.2584 176.074 96.9008Z" fill="#263238"/>
<path d="M157.463 113.358C157.793 113.834 158.092 114.46 158.699 114.631C159.28 114.795 160.025 114.663 160.607 114.558C160.665 114.547 160.708 114.615 160.664 114.659C160.097 115.225 159.089 115.454 158.329 115.164C157.586 114.88 157.335 114.142 157.285 113.403C157.277 113.299 157.415 113.289 157.463 113.358Z" fill="#263238"/>
<path d="M160.233 108.618C160.898 110.277 162.14 111.354 163.595 111.939C164.243 112.206 164.949 112.366 165.657 112.437C165.794 112.461 165.934 112.472 166.063 112.468C166.19 112.477 166.305 112.485 166.447 112.483C166.651 112.493 166.792 112.35 166.861 112.169L166.863 112.156C166.874 112.094 166.883 112.044 166.881 111.979C166.881 111.979 166.881 111.979 166.883 111.967L166.909 111.817C167.198 110.517 167.456 108.503 167.456 108.503C167.888 108.835 170.112 110.403 170.206 109.712C170.964 103.99 171.807 97.6274 171.353 91.7738C171.348 91.58 171.054 91.5674 171.034 91.757C170.088 97.2272 170.111 102.827 169.248 108.337C168.528 107.891 167.365 107.098 166.679 106.98C166.483 106.997 166.249 110.88 166.072 111.454C166.072 111.454 166.068 111.48 166.049 111.514C163.797 111.37 162.269 110.385 160.422 108.496C160.314 108.375 160.157 108.463 160.233 108.618Z" fill="#263238"/>
<path d="M138.746 96.8132C143.332 97.0304 150.181 83.7158 150.181 83.7158L148.386 91.6952C148.386 91.6952 152.482 90.182 155.158 87.233C157.068 85.1276 157.897 81.5588 158.069 79.7276C158.069 79.7276 161.06 86.147 165.929 89.3612C167.72 90.5432 182.23 95.3564 182.534 94.457C183.44 91.7756 180.956 80.2658 178.149 76.5572C174.918 72.2882 169.856 67.5044 160.085 67.9028C150.313 68.3006 146.173 73.1006 143.439 76.9808C140.705 80.861 137.06 96.7334 138.746 96.8132Z" fill="#263238"/>
<path d="M144 99.3152C144 99.3152 140.54 89.975 136.438 91.004C132.335 92.033 133.494 104.564 137.295 107.232C141.096 109.899 143.636 106.435 143.636 106.435L144 99.3152Z" fill="#D18F67"/>
<path d="M136.86 94.5878C136.794 94.5638 136.755 94.655 136.808 94.6946C139.447 96.662 140.286 99.803 140.632 102.922C140.04 101.601 139 100.691 137.263 101.351C137.172 101.386 137.215 101.526 137.302 101.53C138.58 101.587 139.398 102.025 139.961 103.207C140.36 104.043 140.529 105.013 140.736 105.912C140.805 106.212 141.318 106.196 141.298 105.865C141.296 105.841 141.294 105.816 141.292 105.791C142.351 102.051 140.802 96.0242 136.86 94.5878Z" fill="#263238"/>
<path d="M171.646 70.1834C169.436 68.1878 166.743 65.9798 163.305 64.3316C159.867 62.6834 148.263 59.7848 144.793 61.1468C141.324 62.5088 137.053 72.929 136.459 74.465C135.865 76.001 133.42 85.658 136.075 89.0708C138.729 92.4836 144.396 76.5812 151.558 73.0688C158.719 69.5564 171.646 70.1834 171.646 70.1834Z" fill="#FFC527"/>
<path opacity="0.1" d="M171.647 70.1871C171.647 70.1871 158.717 69.5565 151.559 73.0731C144.397 76.5777 138.73 92.4855 136.07 89.0739C134.901 87.5691 134.668 85.8363 134.884 83.1261C137.159 78.6861 141.473 72.0573 147.051 68.3295C152.276 64.8381 159.355 64.5531 166.335 66.0369C168.392 67.3491 170.131 68.8155 171.647 70.1871Z" fill="black"/>
<path d="M133.837 98.8886C135.566 94.7234 143.714 84.7478 150.45 79.7186C157.185 74.6894 171.841 75.3272 173.677 76.0592C178.131 77.8358 179.212 79.7252 180.067 79.559C180.921 79.3928 177.384 74.4188 176.361 73.2272C175.337 72.0356 172.503 69.0836 170.512 68.4722C168.521 67.8614 155.944 65.0102 149.788 68.726C143.631 72.4418 132.518 84.902 132.423 89.0096C132.4 89.9948 133.396 90.9674 133.353 92.3612C133.295 94.1912 133.002 96.2318 133.116 97.5626C133.21 98.6354 133.686 99.251 133.837 98.8886Z" fill="#FFC527"/>
<path d="M152.477 77.1291C151.645 76.1331 150.903 75.1035 150.248 73.9803C149.602 72.8721 148.988 71.6751 148.623 70.4427C148.596 70.3527 148.457 70.3737 148.476 70.4697C148.737 71.8047 149.099 73.0665 149.764 74.2623C150.402 75.4107 151.288 76.4817 152.307 77.3139C152.419 77.4069 152.568 77.2371 152.477 77.1291Z" fill="#263238"/>
<path d="M135.217 94.613C135.201 94.265 135.09 93.9254 135.042 93.5804C134.987 93.1868 134.967 92.789 134.996 92.393C135.052 91.634 135.31 90.9284 135.202 90.1598C135.116 89.5496 134.894 88.9778 134.675 88.4066C134.426 87.7556 134.191 87.0824 134.413 86.3924C134.442 86.3012 134.303 86.2502 134.272 86.342C133.834 87.6368 134.398 88.847 134.602 90.1202C134.733 90.9356 134.453 91.718 134.448 92.5322C134.443 93.2216 134.523 94.1348 134.98 94.6898C135.048 94.772 135.222 94.7348 135.217 94.613Z" fill="#263238"/>
<path d="M138.227 90.4929C137.985 89.8713 137.695 89.2923 137.512 88.6443C137.337 88.0233 137.217 87.3807 137.127 86.7423C137.038 86.1111 137.001 85.4751 136.926 84.8427C136.836 84.0951 136.656 83.3505 136.603 82.6005C136.596 82.5045 136.449 82.5327 136.456 82.6281C136.511 83.4057 136.432 84.1953 136.462 84.9765C136.488 85.6491 136.58 86.3259 136.693 86.9895C136.803 87.6291 136.961 88.2531 137.19 88.8603C137.408 89.4363 137.718 90.0963 138.159 90.5367C138.191 90.5691 138.244 90.5373 138.227 90.4929Z" fill="#263238"/>
<path d="M141.17 86.8383C140.54 85.7943 140.023 84.6249 139.722 83.4417C139.423 82.2741 139.193 81.0819 138.975 79.8969C138.96 79.8165 138.825 79.8183 138.826 79.9053C138.857 81.1641 138.88 82.4109 139.216 83.6349C139.375 84.2151 139.563 84.8181 139.855 85.3461C140.172 85.9215 140.595 86.4405 141.039 86.9223C141.096 86.9841 141.218 86.9187 141.17 86.8383Z" fill="#263238"/>
<path d="M144.192 83.4087C143.805 82.9617 143.632 82.4361 143.442 81.8889C143.232 81.2877 143.035 80.6799 142.859 80.0685C142.69 79.4811 142.505 78.8979 142.336 78.3105C142.167 77.7189 142.004 77.1063 142.093 76.4883C142.105 76.4055 141.972 76.3761 141.949 76.4571C141.777 77.0619 141.806 77.6715 141.883 78.2883C141.967 78.9639 142.092 79.6281 142.291 80.2797C142.488 80.9199 142.713 81.5499 142.989 82.1595C143.23 82.6917 143.534 83.2569 144.051 83.5611C144.149 83.6181 144.274 83.5029 144.192 83.4087Z" fill="#263238"/>
<path d="M147.1 78.7496C146.833 78.2294 146.572 77.7104 146.347 77.1704C146.124 76.6334 145.926 76.0832 145.737 75.5336C145.54 74.9588 145.327 74.3792 145.166 73.793C145.14 73.7 145.01 73.7246 145.019 73.8206C145.076 74.4344 145.137 75.0338 145.287 75.6344C145.435 76.2224 145.631 76.7918 145.859 77.3534C146.084 77.9048 146.33 78.4562 146.624 78.974C146.907 79.4738 147.225 80.0516 147.687 80.4062C147.756 80.459 147.875 80.39 147.849 80.3018C147.697 79.7564 147.357 79.2512 147.1 78.7496Z" fill="#263238"/>
<path d="M156.557 75.7953C156.312 75.1311 156.072 74.4813 155.764 73.8423C155.451 73.1937 155.092 72.5625 154.709 71.9535C153.959 70.7589 153.135 69.6231 152.142 68.6181C152.087 68.5623 151.971 68.6205 152.017 68.6979C153.459 71.0991 155.002 73.4433 156.422 75.8589C156.471 75.9417 156.591 75.8859 156.557 75.7953Z" fill="#263238"/>
<path d="M160.356 73.0041C160.095 72.3477 159.768 71.7273 159.366 71.1471C158.525 69.9321 157.471 68.8923 156.388 67.8939C156.319 67.8303 156.213 67.9119 156.274 67.9899C157.135 69.0939 158.015 70.1853 158.812 71.3373C159.204 71.9049 159.592 72.4869 159.92 73.0953C160.25 73.7079 160.438 74.3721 160.74 74.9937C160.763 75.0417 160.845 75.0315 160.846 74.9739C160.863 74.3103 160.597 73.6119 160.356 73.0041Z" fill="#263238"/>
<path d="M164.466 72.5151C164.238 71.8767 163.939 71.2755 163.587 70.6965C162.919 69.5991 162.07 68.6451 161.08 67.8285C161.014 67.7739 160.925 67.8741 160.98 67.9377C161.809 68.9067 162.559 69.9543 163.209 71.0505C163.536 71.6013 163.834 72.1689 164.139 72.7323C164.442 73.2921 164.642 73.9395 165 74.4645C165.03 74.5071 165.091 74.4687 165.085 74.4243C164.992 73.7817 164.684 73.1247 164.466 72.5151Z" fill="#263238"/>
<path d="M167.743 71.2454C167.417 70.7306 167.064 70.2356 166.707 69.7418C166.355 69.254 165.992 68.7704 165.503 68.4134C165.429 68.3594 165.359 68.4554 165.403 68.522C166.045 69.5072 166.667 70.5098 167.288 71.5088C167.873 72.4508 168.125 73.4966 168.5 74.5262C168.516 74.5718 168.591 74.5562 168.593 74.5094C168.617 73.346 168.37 72.233 167.743 71.2454Z" fill="#263238"/>
<path d="M171.174 71.6259C170.629 70.5453 169.814 69.6963 168.919 68.9019C168.856 68.8461 168.759 68.9517 168.819 69.0111C169.628 69.8103 170.23 70.8243 170.758 71.8221C171.298 72.8415 171.652 73.9293 171.957 75.0363C171.972 75.0891 172.061 75.0939 172.061 75.0303C172.06 73.8471 171.703 72.6759 171.174 71.6259Z" fill="#263238"/>
<path d="M174.732 74.9355C174.704 74.6763 174.646 74.4171 174.583 74.1651C174.455 73.6539 174.25 73.1595 174.019 72.6867C173.546 71.7171 172.875 70.8675 172.221 70.0155C172.162 69.9393 172.046 70.0365 172.106 70.1115C172.76 70.9281 173.291 71.8353 173.733 72.7833C173.951 73.2495 174.122 73.7301 174.269 74.2233C174.341 74.4639 174.396 74.7075 174.447 74.9535C174.494 75.1851 174.507 75.4587 174.598 75.6753C174.622 75.7329 174.718 75.7305 174.736 75.6687C174.799 75.4467 174.757 75.1635 174.732 74.9355Z" fill="#263238"/>
<path d="M177.223 76.0203C177.09 75.6039 176.94 75.2001 176.76 74.8017C176.581 74.4039 176.385 74.0247 176.157 73.6527C175.926 73.2741 175.678 72.9027 175.463 72.5145C175.411 72.4209 175.279 72.5031 175.338 72.5943C175.581 72.9687 175.768 73.3803 175.942 73.7901C176.108 74.1783 176.278 74.5635 176.445 74.9505C176.611 75.3375 176.778 75.7239 176.942 76.1115C177.108 76.5027 177.226 76.9329 177.433 77.3031C177.467 77.3643 177.551 77.3337 177.546 77.2665C177.514 76.8471 177.35 76.4193 177.223 76.0203Z" fill="#263238"/>
<path d="M164.402 149.469L149.942 191.85C149.376 193.082 149.929 194.166 151.177 194.269L173.508 196.103C174.755 196.206 176.228 195.288 176.795 194.056L191.254 151.674C191.821 150.44 191.267 149.358 190.021 149.256L167.689 147.421C166.441 147.318 164.969 148.234 164.402 149.469Z" fill="#37474F"/>
<path d="M167.054 149.663L152.595 192.045C152.029 193.276 152.581 194.361 153.829 194.463L176.161 196.297C177.407 196.4 178.881 195.482 179.447 194.25L193.906 151.869C194.474 150.634 193.919 149.553 192.673 149.451L170.342 147.616C169.094 147.513 167.621 148.429 167.054 149.663Z" fill="#455A64"/>
<path d="M173.014 152.143C172.905 153.189 171.969 153.948 170.923 153.838C169.877 153.729 169.118 152.793 169.228 151.747C169.337 150.702 170.273 149.942 171.319 150.051C172.364 150.161 173.123 151.098 173.014 152.143Z" fill="#263238"/>
<path d="M72.9617 229.728C81.8705 232.748 94.6445 227.833 128.38 211.935C133.048 209.734 126.385 172.614 121.279 174.707C114.848 177.343 90.4613 188.968 88.7855 190.044C74.6501 199.113 66.9185 227.68 72.9617 229.728Z" fill="#D18F67"/>
<path d="M108.702 183.126C108.702 183.126 119.401 172.927 126.681 169.308C136.429 164.463 146.84 164.293 151.207 164.486C160.322 164.887 182.086 172.161 181.085 178.794C180.178 184.798 158.308 176.241 158.308 176.241C158.308 176.241 182.047 181.287 179.626 188.316C177.205 195.346 152.382 183.967 152.382 183.967C152.382 183.967 176.656 189.699 173.013 196.553C170.26 201.733 147.197 192.693 147.197 192.693C147.197 192.693 168.027 197.764 165.425 203.213C162.55 209.235 140.738 202.226 140.738 202.226C131.794 214.963 122.324 217.369 115.384 218.279C113.705 218.5 108.702 183.126 108.702 183.126Z" fill="#D18F67"/>
<path d="M150.21 173.97C153.02 174.462 155.867 174.941 158.624 175.681C161.381 176.421 164.114 177.258 166.789 178.251C173.35 180.687 177.078 183.238 176.831 183.106C170.979 179.971 161.152 177.169 158.395 176.43C155.644 175.691 152.93 174.814 150.178 174.074C150.109 174.055 150.143 173.958 150.21 173.97Z" fill="#263238"/>
<path d="M147.357 183.875C150.918 184.659 154.481 185.306 158.009 186.246C161.519 187.182 164.767 188.378 168.203 189.554C168.468 189.644 168.332 189.757 168.063 189.677C164.582 188.639 161.285 187.949 157.793 186.953C154.312 185.96 150.845 184.824 147.332 183.959C147.276 183.945 147.303 183.864 147.357 183.875Z" fill="#263238"/>
<path d="M143.38 191.936C148.883 192.854 154.21 194.787 159.39 196.808C159.648 196.909 159.456 197.034 159.187 196.947C153.896 195.227 149.757 193.84 143.347 192.128C143.247 192.101 143.264 191.917 143.38 191.936Z" fill="#263238"/>
<path d="M98.1466 185.395C95.614 186.762 93.0838 188.134 90.6124 189.606C88.1854 191.089 85.6636 192.524 83.7742 194.683C80.8978 197.85 78.5272 201.511 76.4632 205.263C75.769 206.52 75.1396 207.814 74.5876 209.145C76.6018 203.362 79.8772 197.947 84.0976 193.494C88.1674 189.886 93.256 187.65 98.1466 185.395Z" fill="#263238"/>
<path d="M153.592 23.4104V53.4698H157.811V60.761L165.103 53.4698H205.116V23.4104H153.592Z" fill="white"/>
<path d="M153.592 23.4104L153.686 38.4788C153.73 43.4906 153.756 48.4802 153.76 53.4698L153.592 53.3018L157.812 53.2922L157.989 53.2916L157.99 53.4698L158.007 60.761L157.674 60.6236L164.949 53.3156L165.012 53.252H165.103C176.88 53.2256 193.502 53.1656 205.116 53.1818L204.828 53.4704L204.898 23.4116L205.116 23.63C192.272 23.6198 166.434 23.4926 153.592 23.4104ZM153.592 23.4104C166.431 23.33 192.278 23.204 205.116 23.192L205.334 23.1914L205.335 23.4104L205.405 53.4692L205.405 53.7566L205.116 53.7578C193.562 53.7962 176.83 53.6924 165.103 53.6876L165.258 53.6234L157.95 60.8978L157.616 61.2296L157.617 60.7598L157.634 53.4686L157.812 53.6462L153.592 53.6366L153.424 53.636C153.396 44.8304 153.572 32.3282 153.592 23.4104Z" fill="#263238"/>
<path d="M189.094 38.4404C189.094 39.7886 190.187 40.8812 191.536 40.8812C192.884 40.8812 193.977 39.788 193.977 38.4404C193.977 37.0922 192.884 35.999 191.536 35.999C190.187 35.999 189.094 37.0916 189.094 38.4404Z" fill="#263238"/>
<path d="M176.912 38.4404C176.912 39.7886 178.005 40.8812 179.353 40.8812C180.701 40.8812 181.794 39.788 181.794 38.4404C181.794 37.0922 180.701 35.999 179.353 35.999C178.005 35.999 176.912 37.0916 176.912 38.4404Z" fill="#263238"/>
<path d="M164.729 38.4404C164.729 39.7886 165.823 40.8812 167.17 40.8812C168.518 40.8812 169.612 39.788 169.612 38.4404C169.612 37.0922 168.518 35.999 167.17 35.999C165.823 35.999 164.729 37.0916 164.729 38.4404Z" fill="#263238"/>
<path d="M137.616 120.442V150.501H133.396V157.792L126.105 150.501H74.0918V120.442H137.616Z" fill="white"/>
<path d="M137.615 120.442C137.609 129.414 137.816 141.817 137.784 150.669L137.615 150.669L133.396 150.679L133.574 150.501L133.591 157.792L133.592 158.262L133.258 157.93L125.95 150.656C118.279 150.86 95.1259 150.714 87.0949 150.796L74.0917 150.782H73.8103L73.8109 150.502L73.8697 120.443L73.8703 120.22L74.0923 120.221C89.9293 120.25 121.786 120.343 137.615 120.442ZM137.615 120.442C121.785 120.543 89.9173 120.636 74.0917 120.664L74.3137 120.442L74.3725 150.501L74.0917 150.22C80.5861 150.202 93.6091 150.212 100.098 150.232C100.386 150.295 126.037 150.158 126.259 150.346L133.534 157.654L133.201 157.791L133.218 150.5L133.219 150.322L133.396 150.322L137.615 150.332L137.447 150.5C137.452 145.51 137.478 140.521 137.522 135.509L137.615 120.442Z" fill="#263238"/>
<path d="M110.874 126.604H80.5771V128.139H110.874V126.604Z" fill="#A6A6A6"/>
<path d="M80.5771 132.316C96.4693 131.912 113.26 131.921 129.171 132.316C113.254 132.711 96.4747 132.72 80.5771 132.316Z" fill="#EBEBEB"/>
<path d="M80.5771 136.403C96.8491 136.008 114.855 136.008 131.131 136.403C114.853 136.798 96.8503 136.797 80.5771 136.403Z" fill="#EBEBEB"/>
<path d="M80.5771 140.49C93.6931 140.086 106.897 140.086 120.016 140.49C106.896 140.893 93.6937 140.893 80.5771 140.49Z" fill="#EBEBEB"/>
<path d="M80.5771 144.576C93.6931 144.173 106.897 144.173 120.016 144.576C106.896 144.979 93.6937 144.979 80.5771 144.576Z" fill="#EBEBEB"/>
<path d="M184.468 62.1787V94.6417H189.024V102.516L196.899 94.6417H259.551V62.1787H184.468Z" fill="white"/>
<path d="M184.468 62.1788L184.561 78.4489C184.606 83.8615 184.631 89.2514 184.636 94.6418L184.468 94.4738L189.024 94.4641L189.202 94.4636L189.202 94.6418L189.219 102.516L188.887 102.379L196.744 94.4875L196.808 94.4239H196.899C215.344 94.3915 241.363 94.3238 259.551 94.3652L259.274 94.6424L259.328 62.18L259.551 62.4032C240.833 62.3924 203.182 62.2616 184.468 62.1788ZM184.468 62.1788C203.176 62.0984 240.843 61.9682 259.551 61.9556L259.774 61.955L259.775 62.1788L259.829 94.6411L259.83 94.9178L259.552 94.9184C241.457 94.9832 215.265 94.868 196.899 94.8596L197.054 94.7953L189.163 102.653L188.829 102.985L188.83 102.515L188.847 94.6406L189.025 94.8182L184.468 94.8086L184.3 94.8079C184.257 85.3063 184.457 71.8028 184.468 62.1788Z" fill="#263238"/>
<path d="M208.777 69.0859H190.27V87.5923H208.777V69.0859Z" fill="#455A64"/>
<path d="M196.87 81.6548V75.0236L203.683 78.3392L196.87 81.6548Z" fill="white"/>
<path d="M248.217 69.0859H214.534V70.6207H248.217V69.0859Z" fill="#A6A6A6"/>
<path d="M214.534 74.7979C226.703 74.3947 238.955 74.3947 251.127 74.7979C238.954 75.2011 226.703 75.2011 214.534 74.7979Z" fill="#EBEBEB"/>
<path d="M214.534 78.8846C227.355 78.4814 240.263 78.4814 253.087 78.8846C240.262 79.2878 227.356 79.2878 214.534 78.8846Z" fill="#EBEBEB"/>
<path d="M214.534 82.9711C223.655 82.5679 232.849 82.5679 241.973 82.9711C232.848 83.3743 223.656 83.3743 214.534 82.9711Z" fill="#EBEBEB"/>
<path d="M214.534 87.0584C223.655 86.6552 232.849 86.6552 241.973 87.0584C232.848 87.4616 223.656 87.4616 214.534 87.0584Z" fill="#EBEBEB"/>
<path d="M120.333 73.3369V105.799H115.777V113.674L107.902 105.799H45.2495V73.3369H120.333Z" fill="white"/>
<path d="M120.333 73.337C120.32 83.0192 120.538 96.416 120.501 105.967L120.333 105.968L115.777 105.978L115.954 105.8L115.971 113.674L115.972 114.144L115.639 113.812L107.747 105.955L107.902 106.019C89.4474 106.021 63.444 106.141 45.2496 106.078L44.9712 106.077L44.9718 105.801L45.0258 73.3382L45.0264 73.1144L45.2496 73.115C63.9696 73.1456 101.621 73.238 120.333 73.337ZM120.333 73.337C101.623 73.439 63.954 73.5314 45.2496 73.5602L45.4728 73.337L45.5268 105.799L45.2496 105.522C63.3372 105.481 89.5416 105.554 107.902 105.58H107.993L108.057 105.645L115.915 113.536L115.582 113.673L115.599 105.799L115.6 105.621L115.777 105.621L120.334 105.631L120.166 105.799C120.17 100.408 120.196 95.0186 120.24 89.606L120.333 73.337Z" fill="#263238"/>
<path d="M70.2193 80.2435H51.7129V98.7499H70.2193V80.2435Z" fill="#FFC527"/>
<path opacity="0.2" d="M54.2041 86.0714C53.9185 87.5768 55.2139 88.8722 56.7199 88.5872C57.5611 88.4276 58.2391 87.7496 58.3987 86.9084C58.6843 85.403 57.3889 84.1076 55.8829 84.3932C55.0417 84.5516 54.3637 85.2302 54.2041 86.0714Z" fill="white"/>
<path opacity="0.2" d="M56.8452 98.7506H70.2216L63.5334 90.6116L56.8452 98.7506Z" fill="white"/>
<path d="M51.7129 98.7505H62.7571L57.2353 93.4501L51.7129 98.7505Z" fill="#FFC527"/>
<path opacity="0.5" d="M51.7129 98.7505H62.7571L57.2353 93.4501L51.7129 98.7505Z" fill="white"/>
<path d="M109.66 80.2435H75.9763V81.7783H109.66V80.2435Z" fill="#A6A6A6"/>
<path d="M75.9763 85.9555C88.1455 85.5523 100.398 85.5523 112.57 85.9555C100.397 86.3587 88.1461 86.3587 75.9763 85.9555Z" fill="#EBEBEB"/>
<path d="M75.9763 90.0428C88.7977 89.6396 101.706 89.6396 114.53 90.0428C101.704 90.446 88.7989 90.446 75.9763 90.0428Z" fill="#EBEBEB"/>
<path d="M75.9763 94.1293C85.0981 93.7261 94.2913 93.7261 103.416 94.1293C94.2907 94.5325 85.0987 94.5325 75.9763 94.1293Z" fill="#EBEBEB"/>
<path d="M75.9763 98.216C85.0981 97.8128 94.2913 97.8128 103.416 98.216C94.2907 98.6198 85.0987 98.6192 75.9763 98.216Z" fill="#EBEBEB"/>
<path d="M190.49 105.17V137.632H195.047V145.507L202.921 137.632H221.22V105.17H190.49Z" fill="white"/>
<path d="M190.49 105.17L190.669 137.632L190.49 137.453L195.046 137.437L195.241 137.436L195.241 137.632L195.269 145.507L194.888 145.349L202.739 137.451L202.814 137.376C202.898 137.38 221.122 137.34 221.219 137.342L220.929 137.632C220.921 129.546 220.958 113.256 220.979 105.17L221.219 105.41L190.49 105.17ZM190.49 105.17C198.272 105.099 213.676 104.961 221.459 104.928C221.48 113.148 221.515 129.416 221.51 137.632V137.923L221.219 137.923L202.921 137.889L203.102 137.814L195.204 145.665L194.822 146.045L194.824 145.507L194.851 137.633L195.047 137.828L190.49 137.812L190.31 137.811L190.311 137.632L190.49 105.17Z" fill="#263238"/>
<path d="M214.799 112.077H196.293V130.583H214.799V112.077Z" fill="#FFC527"/>
<path d="M201.13 119.402C201.13 121.781 203.059 123.709 205.438 123.709C207.817 123.709 209.745 121.781 209.745 119.402C209.745 117.023 207.817 115.094 205.438 115.094C203.059 115.094 201.13 117.023 201.13 119.402Z" fill="white"/>
<path d="M212.85 130.586H198.024C198.378 126.812 201.558 123.842 205.44 123.842C209.316 123.842 212.496 126.812 212.85 130.586Z" fill="white"/>
<path d="M130.152 28.5068V60.9698H125.595V68.8442L117.721 60.9698H99.4219V28.5068H130.152Z" fill="white"/>
<path d="M130.152 28.5068L130.331 60.9692L130.333 61.148L130.152 61.1486L125.596 61.1648L125.791 60.9698L125.818 68.8442L125.82 69.3818L125.438 69.0014L117.54 61.151L117.721 61.226L99.4218 61.2602L99.1313 61.2608V60.9698C99.1379 52.7558 99.1499 36.4784 99.1817 28.2656C106.967 28.3154 122.371 28.4186 130.152 28.5068ZM130.152 28.5068L99.4223 28.7468L99.6624 28.5068C99.696 36.6026 99.7079 52.877 99.7121 60.9692L99.4218 60.6788C99.5334 60.6746 117.733 60.7166 117.827 60.713L117.901 60.788L125.752 68.6858L125.372 68.8436L125.4 60.9698L125.401 60.7736L125.596 60.7742L130.152 60.7904C129.671 61.886 130.299 28.2818 130.152 28.5068Z" fill="#263238"/>
<path d="M105.842 53.9202H124.349V35.4138H105.842V53.9202Z" fill="#455A64"/>
<path d="M118.971 42.5126C118.776 40.5734 117.439 38.6456 115.092 38.6456C112.751 38.6456 111.414 40.5734 111.219 42.5126C110.926 45.5018 112.941 48.2156 115.092 50.6888C117.25 48.2156 119.269 45.5018 118.971 42.5126ZM115.092 44.6642C113.922 44.6642 112.975 43.7174 112.975 42.5414C112.975 41.3708 113.922 40.424 115.092 40.424C116.268 40.424 117.221 41.3708 117.221 42.5414C117.221 43.7174 116.269 44.6642 115.092 44.6642Z" fill="white"/>
<path d="M268.566 274.597C192.605 274.965 107.394 274.968 31.4341 274.597C107.395 274.227 192.605 274.23 268.566 274.597Z" fill="#263238"/>
</svg>
