<svg width="200" height="200" viewBox="0 0 200 200" fill="none" xmlns="http://www.w3.org/2000/svg">
<path d="M156.828 155.026H170.891V150.55H156.828V155.026Z" fill="#EBEBEB"/>
<path d="M50.007 96.9443H64.0702V92.4683H50.007V96.9443Z" fill="#EBEBEB"/>
<path d="M164.673 160.67C167.009 160.63 172.998 160.53 175.252 160.504L178.736 160.487L178.554 160.67L178.536 156.194L178.736 156.393C176.401 156.386 170.445 156.364 168.189 156.332L164.673 156.288L164.768 156.194L164.673 160.67ZM164.673 160.67L164.578 156.194L164.576 156.1L164.673 156.099C166.428 156.076 169.951 156.035 171.705 156.021L178.736 155.994L178.937 155.993L178.936 156.194L178.919 160.67L178.918 160.853L178.736 160.852L175.189 160.835C172.949 160.81 166.987 160.709 164.673 160.67Z" fill="#EBEBEB"/>
<path d="M115.853 60.0656C118.188 60.0264 124.177 59.9264 126.432 59.9004L129.916 59.8832L129.734 60.0656L129.716 55.5896L129.916 55.7892C127.58 55.782 121.624 55.7604 119.368 55.728L115.853 55.6844L115.948 55.5896L115.853 60.0656ZM115.853 60.0656L115.758 55.5896L115.756 55.496L115.853 55.4948C117.607 55.4716 121.131 55.4312 122.884 55.4172L129.916 55.39L130.116 55.3892L130.116 55.5896L130.098 60.0656L130.097 60.2488L129.916 60.248L126.368 60.2308C124.128 60.206 118.166 60.1052 115.853 60.0656Z" fill="#EBEBEB"/>
<path d="M123.697 65.7096C126.033 65.6704 132.022 65.5704 134.276 65.5444L137.76 65.5272L137.578 65.7096L137.56 61.2336L137.76 61.4332C135.425 61.426 129.469 61.4044 127.213 61.372L123.697 61.3284L123.792 61.2336L123.697 65.7096ZM123.697 65.7096L123.602 61.2336L123.6 61.14L123.697 61.1388C125.452 61.1156 128.975 61.0752 130.729 61.0612L137.76 61.034L137.961 61.0332L137.96 61.2336L137.943 65.7096L137.942 65.8928L137.76 65.892L134.213 65.8748C131.973 65.85 126.011 65.7492 123.697 65.7096Z" fill="#EBEBEB"/>
<path d="M131.511 60.0657H145.574V55.5897H131.511V60.0657Z" fill="#EBEBEB"/>
<path d="M21.2637 160.67H35.3269V156.194H21.2637V160.67Z" fill="#EBEBEB"/>
<path d="M29.1084 22.4495H43.1716V17.9735H29.1084V22.4495Z" fill="#EBEBEB"/>
<path d="M21.2635 28.0933C23.5991 28.0537 29.5879 27.9541 31.8423 27.9281L35.3267 27.9109L35.1443 28.0933L35.1267 23.6173L35.3263 23.8169C32.9911 23.8097 27.0355 23.7881 24.7791 23.7557L21.2639 23.7121L21.3587 23.6173L21.2635 28.0933ZM21.2635 28.0933L21.1687 23.6173L21.1667 23.5233L21.2639 23.5221C23.0183 23.4989 26.5415 23.4585 28.2955 23.4445L35.3271 23.4173L35.5275 23.4165L35.5267 23.6173L35.5091 28.0933L35.5083 28.2765L35.3267 28.2757L31.7795 28.2585C29.5391 28.2337 23.5771 28.1329 21.2635 28.0933Z" fill="#EBEBEB"/>
<path d="M156.828 22.4493C159.164 22.4101 165.153 22.3101 167.407 22.2841L170.892 22.2669L170.709 22.4493L170.692 17.9733L170.891 18.1729C168.556 18.1657 162.6 18.1441 160.344 18.1117L156.828 18.0681L156.923 17.9733L156.828 22.4493ZM156.828 22.4493L156.734 17.9733L156.732 17.8793L156.828 17.8781C158.583 17.8549 162.106 17.8145 163.86 17.8005L170.892 17.7733L171.092 17.7725L171.092 17.9729L171.074 22.4489L171.073 22.6321L170.892 22.6313L167.344 22.6141C165.104 22.5901 159.142 22.4889 156.828 22.4493Z" fill="#EBEBEB"/>
<path d="M155.136 70.8932L153.853 77.5408C153.302 80.4004 150.74 82.134 147.876 81.5816C145.22 81.0692 143.282 78.468 143.834 75.608L145.886 64.9729C145.905 64.8728 146.009 64.8928 146.029 64.7888C145.944 64.6688 145.944 64.6688 145.964 64.5648C146.477 61.9048 149.282 60.0068 151.938 60.5188C158.382 61.7616 164.584 57.656 165.806 51.3164C167.048 44.8768 162.8 38.8592 156.356 37.6164C152.164 36.808 148.05 38.35 145.456 41.3468C143.554 43.5272 140.329 43.7516 138.15 41.846C136.073 39.9648 135.83 36.8392 137.734 34.6636C142.637 29.0336 150.417 26.0788 158.288 27.5972C170.152 29.8856 178.009 41.3701 175.722 53.2288C173.769 63.3528 165.076 70.4792 155.136 70.8932ZM150.817 93.2832L150.462 95.1232C149.91 97.9872 147.348 99.7204 144.484 99.1684C141.828 98.656 139.89 96.0548 140.443 93.1908L140.798 91.3508C141.33 88.5912 144.115 86.7968 146.771 87.3092C149.635 87.8616 151.349 90.5236 150.817 93.2832Z" fill="#EBEBEB"/>
<path d="M35.876 94.0945L34.2772 87.5157C33.5896 84.6857 35.1984 82.0437 38.0328 81.3549C40.6608 80.7161 43.5048 82.2761 44.1928 85.1061L46.7508 95.6313C46.7748 95.7301 46.672 95.7553 46.6968 95.8581C46.824 95.9321 46.824 95.9321 46.8488 96.0349C47.4884 98.6673 45.7268 101.56 43.0984 102.199C36.7216 103.749 32.7896 110.062 34.314 116.335C35.8628 122.708 42.2296 126.413 48.6064 124.864C52.7548 123.856 55.8544 120.742 56.9676 116.938C57.79 114.164 60.6296 112.619 63.4044 113.445C66.0752 114.293 67.5964 117.034 66.7688 119.804C64.652 126.963 58.8056 132.886 51.016 134.779C39.276 137.632 27.3536 130.456 24.5016 118.72C22.0668 108.702 27.008 98.6057 35.876 94.0945ZM30.4912 71.9365L30.0488 70.1157C29.36 67.2817 30.9692 64.6393 33.8032 63.9505C36.4312 63.3117 39.2752 64.8717 39.964 67.7061L40.4064 69.5269C41.07 72.2581 39.2832 75.0481 36.6552 75.6869C33.8212 76.3757 31.1548 74.6677 30.4912 71.9365Z" fill="#EBEBEB"/>
<path d="M130.162 184.652H86.5925C86.2337 183.25 85.8857 181.869 85.5377 180.511C85.1401 178.948 84.7481 177.424 84.3725 175.939C84.2897 175.608 84.2013 175.276 84.1185 174.95C83.8313 173.813 83.5497 172.703 83.2737 171.626C83.1081 170.97 82.9425 170.323 82.7821 169.683C82.6109 169.031 82.4509 168.391 82.2905 167.767C82.2465 167.601 82.2077 167.436 82.1637 167.275C82.1197 167.093 82.0753 166.916 82.0313 166.74C81.9761 166.519 81.9209 166.309 81.8657 166.094V166.088C81.8049 165.862 81.7497 165.641 81.6945 165.42C81.5841 165 81.4793 164.586 81.3797 164.183C81.2253 163.587 81.0761 163.002 80.9325 162.433C80.8717 162.184 80.8053 161.936 80.7449 161.693C80.6401 161.295 80.5405 160.909 80.4469 160.528C80.3805 160.274 80.3197 160.025 80.2593 159.782C79.9997 158.783 79.7625 157.844 79.5413 156.966C79.4805 156.734 79.4253 156.508 79.3645 156.287C79.2705 155.906 79.1769 155.542 79.0885 155.188C79.0277 154.968 78.9725 154.752 78.9229 154.542C78.7297 153.791 78.5529 153.107 78.4037 152.505C78.3593 152.345 78.3209 152.19 78.2821 152.041C78.1825 151.643 78.0889 151.29 78.0117 150.975C77.9785 150.848 77.9509 150.727 77.9177 150.616C77.8845 150.489 77.8569 150.373 77.8293 150.268C77.8125 150.191 77.7905 150.113 77.7741 150.047C77.7465 149.937 77.7189 149.837 77.6969 149.749C77.6857 149.7 77.6749 149.656 77.6637 149.617C77.5973 149.358 77.5641 149.225 77.5641 149.225H119.975C119.975 149.225 121.372 154.04 123.608 161.803C124.061 163.382 124.552 165.088 125.077 166.9C126.562 172.074 128.296 178.114 130.162 184.652Z" fill="#37474F"/>
<path d="M93.7265 184.652H92.6389C91.0265 177.976 89.4529 171.29 87.9513 164.592C87.5869 162.963 87.2281 161.335 86.8693 159.7C86.8361 159.546 86.8029 159.397 86.7697 159.242C86.7533 159.159 86.8745 159.126 86.8965 159.209C86.9129 159.258 86.9241 159.308 86.9409 159.358C87.4325 161.108 87.9237 162.864 88.4041 164.62C90.2421 171.279 92.0037 177.96 93.7265 184.652Z" fill="#263238"/>
<path d="M118.601 149.226L116.729 158.596L115.194 166.282L112.583 179.379L112.312 180.72L111.865 182.957L111.528 184.652H86.5877C86.2345 183.244 85.8809 181.864 85.5385 180.511C85.1409 178.948 84.7489 177.424 84.3733 175.939C84.2905 175.608 84.2021 175.276 84.1193 174.95C83.8321 173.813 83.5505 172.703 83.2745 171.626C83.1089 170.97 82.9433 170.323 82.7829 169.683C82.6117 169.031 82.4517 168.391 82.2913 167.767C82.2473 167.601 82.2085 167.436 82.1645 167.275C82.1205 167.093 82.0761 166.916 82.0321 166.74C81.9769 166.519 81.9217 166.309 81.8665 166.094V166.088C81.8057 165.862 81.7505 165.641 81.6953 165.42C81.5849 165 81.4801 164.586 81.3805 164.183C81.2261 163.587 81.0769 163.002 80.9333 162.433C80.8669 162.179 80.8061 161.936 80.7457 161.693C80.6409 161.295 80.5413 160.909 80.4477 160.528C80.3813 160.274 80.3205 160.025 80.2601 159.782C80.0005 158.783 79.7633 157.844 79.5421 156.966C79.4813 156.734 79.4261 156.508 79.3653 156.287C79.2713 155.906 79.1777 155.542 79.0893 155.188C79.0285 154.968 78.9733 154.752 78.9237 154.542C78.7305 153.791 78.5537 153.107 78.4045 152.505C78.3601 152.345 78.3217 152.19 78.2829 152.041C78.1833 151.643 78.0897 151.29 78.0125 150.975C77.9793 150.848 77.9517 150.727 77.9185 150.616C77.8853 150.489 77.8577 150.373 77.8301 150.268C77.8133 150.191 77.7913 150.113 77.7749 150.047C77.7473 149.937 77.7197 149.837 77.6977 149.749C77.6865 149.7 77.6757 149.656 77.6645 149.617C77.5981 149.358 77.5649 149.225 77.5649 149.225H118.601V149.226Z" fill="#263238"/>
<path d="M118.606 149.209C118.606 149.209 118.606 149.215 118.606 149.226C118.59 149.458 118.429 151.987 118.021 155.846C117.905 156.973 117.767 158.21 117.607 159.535C117.358 161.628 117.049 163.936 116.668 166.376C116.016 170.633 115.166 175.277 114.062 179.815C113.67 181.45 113.239 183.067 112.781 184.652L58.0357 184.672C58.0357 184.672 56.4529 181.656 56.5773 180.061C57.0745 173.664 60.8189 149.226 60.8189 149.226L110.479 149.209H118.606Z" fill="#37474F"/>
<path d="M113.581 154.24C113.52 156.2 113.437 158.154 113.31 160.104C113.178 162.218 112.984 164.328 112.708 166.437C112.703 166.514 112.692 166.591 112.681 166.669C112.421 168.646 112.129 170.617 111.792 172.582C111.477 174.416 111.245 176.392 110.433 178.087C110.13 178.728 109.693 179.34 109.153 179.815C108.65 180.257 108.065 180.588 107.402 180.721C107.297 180.748 107.187 180.765 107.077 180.776C107.049 180.782 107.016 180.776 106.983 180.782C107.021 180.809 107.049 180.842 107.043 180.898C107.021 181.555 107.038 182.223 106.966 182.874C106.961 182.902 106.961 182.93 106.955 182.957C106.889 183.526 106.784 184.089 106.679 184.652H105.741C105.746 184.641 105.746 184.63 105.752 184.619C105.917 184.001 106.055 183.377 106.21 182.753C106.376 182.118 106.586 181.494 106.735 180.848C106.74 180.82 106.762 180.804 106.779 180.787C105.586 180.804 104.382 180.169 103.951 179.015C103.637 178.176 103.78 177.303 103.907 176.442C104.079 175.321 104.244 174.2 104.415 173.079C104.736 171.02 105.15 168.982 105.514 166.934C105.569 166.625 105.625 166.31 105.68 166.001C106.414 161.832 107.182 157.663 108.104 153.533C108.137 153.362 108.175 153.191 108.214 153.02C108.236 152.904 108.424 152.937 108.413 153.047C108.385 153.323 108.358 153.605 108.325 153.881C108.165 155.466 107.977 157.044 107.756 158.618C107.491 160.468 107.309 162.329 107.049 164.178C106.961 164.808 106.872 165.437 106.779 166.067C106.353 169.109 105.912 172.152 105.393 175.183C105.15 176.591 104.272 179.114 106.298 179.55C106.801 179.661 107.264 179.578 107.673 179.379C108.573 178.932 109.23 177.905 109.556 177C110.13 175.387 110.334 173.61 110.633 171.931C110.964 170.076 111.257 168.22 111.516 166.36V166.354C111.847 164.03 112.19 161.71 112.554 159.392C112.737 158.21 112.924 157.028 113.112 155.847C113.2 155.3 113.289 154.754 113.377 154.207C113.399 154.09 113.581 154.124 113.581 154.24Z" fill="#263238"/>
<path d="M70.0441 168.794C72.3237 168.785 74.5933 168.453 76.7981 167.885C77.8157 167.623 78.8213 167.298 79.8193 166.971C80.7777 166.656 81.7713 166.27 82.5437 165.603C84.0793 164.279 84.7945 162.193 85.4609 160.343C86.2141 158.252 86.7589 156.123 87.2313 153.955C87.2545 153.847 87.4109 153.883 87.4137 153.984C87.4869 156.415 87.1389 158.892 86.4945 161.236C85.9441 163.237 85.2029 165.472 83.5857 166.875C81.8841 168.351 79.5737 168.869 77.3965 169.138C74.9381 169.442 72.4865 169.369 70.0381 169.036C69.8869 169.016 69.8845 168.795 70.0441 168.794Z" fill="#263238"/>
<path d="M66.2513 154.019C66.1297 157.083 63.0533 174.883 62.7453 180.944C62.6901 182.028 64.8885 183.568 64.8321 184.652H63.8049C63.8745 183.592 61.6905 182.075 61.7613 181.014C62.1669 174.915 65.7485 157.072 65.9861 154.014C66.0029 153.842 66.2569 153.853 66.2513 154.019Z" fill="#263238"/>
<path d="M109.454 81.55C118.83 88.7168 151.739 115.152 152.558 127.683C153.223 137.859 142.883 140.251 136.397 135.456C127.586 128.942 110.983 107.273 104.286 91.546C100.583 82.8516 100.243 74.5088 109.454 81.55Z" fill="#D18F67"/>
<path d="M114.746 113.941L140.686 102.233C140.686 102.233 116.042 82.9378 107.194 79.3086C97.2357 75.2242 97.3249 81.2098 101.193 90.6814C105.06 100.153 114.746 113.941 114.746 113.941Z" fill="#FFC527"/>
<path d="M140.684 102.234L114.745 113.942C114.745 113.942 105.062 100.153 101.193 90.6817C97.3249 81.2109 97.2345 75.2245 107.194 79.3065C107.697 79.5153 108.253 79.7741 108.854 80.0737C109.094 80.1937 109.341 80.3225 109.594 80.4553C109.595 80.4601 109.6 80.4589 109.601 80.4641C112.916 82.2217 117.346 85.1313 121.819 88.2529C121.9 88.3117 121.98 88.3657 122.065 88.4233C125.593 90.8961 129.144 93.4929 132.185 95.7585C132.622 96.0857 133.048 96.4057 133.461 96.7181C137.712 99.9057 140.684 102.234 140.684 102.234Z" fill="#FFC527"/>
<path d="M140.684 102.234L114.745 113.942C114.745 113.942 105.062 100.153 101.193 90.6817C97.3249 81.2109 97.2345 75.2245 107.194 79.3065C107.697 79.5153 108.253 79.7741 108.854 80.0737C109.094 80.1937 109.341 80.3225 109.594 80.4553C109.595 80.4601 109.6 80.4589 109.601 80.4641C112.916 82.2217 117.346 85.1313 121.819 88.2529C121.9 88.3117 121.98 88.3657 122.065 88.4233C125.593 90.8961 129.144 93.4929 132.185 95.7585C132.622 96.0857 133.048 96.4057 133.461 96.7181C137.712 99.9057 140.684 102.234 140.684 102.234Z" fill="#FFC527"/>
<path d="M135.792 98.4721H135.788C135.512 98.4041 135.232 98.3481 134.94 98.3081C135.696 98.9801 136.544 99.4481 137.42 99.8601C137.568 99.9241 137.712 99.9881 137.86 100.048C137.248 99.5841 136.556 99.0561 135.792 98.4721ZM100.66 78.2201C100.656 78.2201 100.656 78.2161 100.652 78.2161C100.344 78.3201 100.076 78.4681 99.848 78.6601C100.012 78.7481 100.176 78.8281 100.344 78.9081C101.228 79.3001 102.136 79.6401 103.136 79.7761C102.38 79.1041 101.532 78.6401 100.66 78.2201ZM118.492 103.912C118.14 103.012 117.74 102.128 117.128 101.324C117.188 102.332 117.46 103.264 117.78 104.176C118.132 105.076 118.532 105.96 119.144 106.764C119.088 105.756 118.816 104.824 118.492 103.912ZM110.924 89.3601C110.02 89.7081 109.14 90.1081 108.336 90.7201C109.344 90.6641 110.276 90.3881 111.188 90.0681C112.088 89.7201 112.972 89.3201 113.776 88.7041C112.764 88.7641 111.836 89.0361 110.924 89.3601Z" fill="white"/>
<path d="M134.958 99.2741C133.998 99.5401 125.857 103.062 124.105 103.865C122.351 104.669 115.155 107.885 113.414 108.866C113.337 108.91 113.38 109.026 113.466 108.997C115.351 108.364 122.619 105.141 124.421 104.359C126.223 103.577 134.201 99.9141 135.023 99.3901C135.092 99.3453 135.023 99.2561 134.958 99.2741Z" fill="#263238"/>
<path opacity="0.1" d="M121.764 110.772L114.744 113.938C114.744 113.938 105.061 100.151 101.194 90.6813C98.3417 83.6925 97.5437 78.6009 101.321 78.0525L121.764 110.772Z" fill="black"/>
<path d="M121.118 152.155L60.1345 153.752C60.1345 153.752 57.1313 150.646 57.5881 146.978C59.2725 133.448 80.7845 86.0216 89.1569 80.32C92.9021 77.7696 100.932 75.7732 105.395 79.116C112.331 84.3112 119.218 121.473 123.15 142.444C124.278 148.456 121.16 152.096 121.118 152.155Z" fill="#EBEBEB"/>
<path d="M89.5233 83.3821C91.6441 86.8637 94.5617 89.8513 97.8765 91.7237C99.5525 92.6705 101.361 93.3789 103.197 93.3781C104.133 93.3777 105.159 93.2173 105.919 92.6141C106.659 92.0269 107.182 91.1229 107.546 90.1849C107.955 89.1297 108.188 87.9653 108.287 86.7973C108.398 85.4881 108.434 84.1453 108.373 82.8185C108.371 82.7677 108.439 82.7753 108.442 82.8257C108.5 84.0845 108.65 85.3421 108.621 86.5989C108.596 87.7141 108.487 88.8237 108.199 89.8721C107.921 90.8821 107.475 91.8425 106.843 92.6005C106.153 93.4281 105.255 93.8337 104.252 93.9817C102.331 94.2649 100.339 93.7053 98.5257 92.7845C96.7741 91.8949 95.0873 90.6449 93.6273 89.1941C91.9733 87.5505 90.5389 85.5869 89.4245 83.4377C89.3849 83.3621 89.4813 83.3133 89.5233 83.3821Z" fill="#263238"/>
<path d="M90.8785 78.0039C90.8785 78.0039 93.4405 100.075 93.7265 110.319C94.0125 120.563 90.8785 178.634 90.8785 178.634C90.8785 178.634 65.9153 173.883 62.8105 173.059C59.7057 172.234 51.2349 164.046 51.2349 164.046C51.2349 164.046 70.7669 93.4879 90.8785 78.0039Z" fill="#FFC527"/>
<path d="M88.292 86.9199C87.904 87.8039 87.56 88.7119 87.428 89.7119C88.1 88.9559 88.564 88.1079 88.98 87.2319C89.372 86.3479 89.712 85.4399 89.848 84.4399C89.176 85.1959 88.712 86.0439 88.292 86.9199ZM76.684 123.128C76.292 124.012 75.952 124.92 75.816 125.924C76.492 125.168 76.956 124.316 77.372 123.444C77.76 122.56 78.1 121.652 78.236 120.648C77.568 121.404 77.1 122.256 76.684 123.128ZM68.324 161.784C67.932 162.668 67.592 163.576 67.456 164.576C68.132 163.824 68.596 162.972 69.012 162.096C69.4 161.212 69.744 160.304 69.876 159.304C69.208 160.06 68.74 160.908 68.324 161.784ZM90.704 159.144C90.316 160.032 89.972 160.936 89.84 161.94C90.512 161.184 90.976 160.336 91.392 159.46C91.596 158.996 91.788 158.536 91.94 158.052V158.044C91.956 157.696 91.972 157.344 91.992 156.988C91.46 157.66 91.064 158.392 90.704 159.144ZM68.676 138.248C67.792 137.856 66.884 137.516 65.88 137.384C66.636 138.056 67.488 138.52 68.36 138.936C69.248 139.324 70.156 139.668 71.156 139.8C70.4 139.132 69.548 138.664 68.676 138.248ZM78.592 103.912C78.24 103.012 77.84 102.128 77.228 101.324C77.288 102.332 77.56 103.264 77.884 104.176C78.232 105.076 78.632 105.96 79.248 106.764C79.188 105.756 78.916 104.824 78.592 103.912ZM90.592 135.74C90.24 134.84 89.84 133.956 89.228 133.152C89.288 134.16 89.56 135.092 89.88 136.004C90.228 136.904 90.628 137.788 91.244 138.592C91.188 137.584 90.912 136.652 90.592 135.74ZM60.192 170.6C60.216 171.004 60.276 171.392 60.356 171.768C60.644 171.96 60.916 172.136 61.18 172.296C60.912 171.708 60.6 171.14 60.192 170.6ZM56.684 150.5C56.452 149.908 56.2 149.32 55.876 148.76C55.788 149.044 55.696 149.328 55.608 149.604C55.712 149.996 55.836 150.38 55.972 150.764C56.324 151.664 56.724 152.548 57.336 153.352C57.28 152.34 57.008 151.412 56.684 150.5ZM79.804 171.96C78.904 172.312 78.02 172.712 77.216 173.324C78.224 173.264 79.156 172.992 80.068 172.668C80.968 172.32 81.852 171.92 82.656 171.304C81.644 171.364 80.716 171.636 79.804 171.96ZM79.116 149.576C78.212 149.924 77.332 150.324 76.528 150.94C77.536 150.88 78.464 150.604 79.376 150.284C80.28 149.936 81.164 149.536 81.968 148.92C80.956 148.98 80.028 149.252 79.116 149.576ZM91.224 112.648C90.324 113 89.44 113.4 88.636 114.012C89.648 113.952 90.576 113.68 91.488 113.36C92.272 113.056 93.036 112.716 93.748 112.232V112.024C92.864 112.112 92.036 112.36 91.224 112.648Z" fill="white"/>
<path d="M105.395 79.1157C108.373 82.8185 112.804 104.451 113.109 106.659C113.414 108.867 122.389 176.046 122.389 176.046C122.389 176.046 127.895 170.588 128.318 168.799C128.742 167.011 122.95 134.648 120.271 122.603C117.246 109.001 112.563 89.2161 109.4 84.5265C107.185 81.2417 105.395 79.1157 105.395 79.1157Z" fill="#FFC527"/>
<path d="M111.52 89.156C111.32 89.224 111.12 89.288 110.924 89.36C110.4 89.56 109.884 89.78 109.384 90.052C109.428 90.22 109.472 90.388 109.516 90.556C110.088 90.436 110.644 90.26 111.188 90.068C111.38 89.992 111.572 89.916 111.764 89.836C111.68 89.604 111.6 89.376 111.52 89.156ZM119.012 149.576L118.856 149.636C118.892 149.888 118.928 150.14 118.96 150.392C119.068 150.356 119.172 150.32 119.276 150.284C120.18 149.936 121.06 149.536 121.864 148.92C120.856 148.98 119.924 149.252 119.012 149.576ZM121.764 171.396C121.784 171.536 121.804 171.668 121.82 171.8C122.072 171.652 122.316 171.488 122.556 171.304C122.288 171.32 122.024 171.352 121.764 171.396ZM116.58 123.128C116.192 124.012 115.848 124.92 115.716 125.924C116.388 125.168 116.856 124.316 117.268 123.444C117.66 122.56 118 121.652 118.136 120.648C117.464 121.404 117 122.256 116.58 123.128Z" fill="white"/>
<path d="M77.3064 89.1905C60.216 109.829 41.0956 139.026 46.1896 146.753C51.864 155.361 76.5296 135.651 77.1972 134.235C77.944 132.652 84.9008 113.985 89.0136 95.3693C93.5244 74.9525 81.5328 84.0869 77.3064 89.1905Z" fill="#D18F67"/>
<path d="M47.6596 147.714C53.7824 151.853 70.6812 153.605 99.5256 148.55C103.517 147.851 95.4784 120.032 91.1776 120.559C85.7608 121.224 64.8828 124.978 63.3908 125.445C50.8056 129.389 43.506 144.907 47.6596 147.714Z" fill="#D18F67"/>
<path d="M83.7549 122.864C83.7549 122.864 85.5029 122.317 94.2589 117.924C100.313 114.887 117.003 111.359 131.154 124.094C136.576 128.973 135.52 134.908 128.987 130.839C124.386 127.974 121.444 125.593 119.68 125.078C119.68 125.078 122.46 132.897 119.698 136.833C118.464 138.591 114.983 143.313 111.748 146.603C111.748 146.603 110.843 146.091 109.787 145.279C109.787 145.279 106.147 150.12 99.5253 148.55L83.7549 122.864Z" fill="#D18F67"/>
<path d="M100.5 115.949C103.938 116.836 111.192 118.84 116.556 122.543C122.514 126.656 132.883 136.184 129.801 140.551C127.541 143.753 123.263 140.463 123.263 140.463C123.263 140.463 126.718 145.305 124.045 147.751C121.608 149.98 118.451 147.236 118.451 147.236C118.451 147.236 120.042 150.534 117.282 152.229C113.961 154.268 111.172 147.022 106.025 146.182C104.869 145.992 100.5 115.949 100.5 115.949Z" fill="#D18F67"/>
<path d="M111.16 128.113C114.256 129.478 120.492 134.382 123.279 140.313C123.342 140.448 123.274 140.567 123.191 140.457C118.736 134.578 113.472 129.984 111.122 128.169C111.09 128.145 111.125 128.098 111.16 128.113Z" fill="#263238"/>
<path d="M107.183 134.248C109.733 135.7 115.934 141.042 118.552 147.149C118.61 147.286 118.534 147.401 118.455 147.288C114.054 140.953 109.378 136.254 107.14 134.302C107.111 134.276 107.15 134.229 107.183 134.248Z" fill="#263238"/>
<path d="M118.455 147.288C120.256 148.671 123.265 149.255 124.592 146.972C125.634 144.843 124.309 142.311 123.097 140.529L122.663 139.937C123.718 140.72 124.888 141.472 126.183 141.746C128.477 142.384 130.412 140.475 130.118 138.182C129.688 134.864 127.07 132.424 124.899 130.082C122.982 128.064 120.926 126.072 118.721 124.369C120.851 125.422 123.035 126.557 125.003 127.88C126.503 128.835 127.779 130.115 129.348 130.962C133.89 133.575 136.14 130.981 133.238 126.702C129.587 121.64 121.448 117.065 115.356 115.852C121.612 116.992 129.674 121.368 133.497 126.525C134.246 127.638 134.959 128.936 134.87 130.334C134.759 132.031 133.19 132.644 131.7 132.276C128.981 131.714 127.018 129.682 124.789 128.201C123.31 127.226 121.756 126.352 120.179 125.546L120.389 125.214C122.101 126.638 123.63 128.228 125.168 129.825C127.574 132.464 131.286 135.911 130.272 139.851C129.357 142.432 126.687 142.592 124.546 141.428C124.046 141.176 123.57 140.89 123.118 140.551L123.283 140.386C124.531 142.262 125.829 144.834 124.706 147.038C123.306 149.348 120.262 148.734 118.455 147.288Z" fill="#263238"/>
<path d="M54.0712 132.331C55.0872 131.285 58.0956 127.957 62.7064 125.936C66.7304 124.173 78.6412 122.262 81.5736 122.055C81.6472 122.05 81.6728 122.136 81.6 122.157C79.0428 122.885 67.6028 124.86 63.2924 126.683C58.7856 128.59 55.1716 131.495 54.1464 132.399C54.0936 132.446 54.0232 132.38 54.0712 132.331Z" fill="#263238"/>
<path d="M84.0008 118.809L55.9784 113.844C55.9784 113.844 75.116 89.079 82.7992 83.3842C91.4464 76.975 92.8328 82.7982 91.4144 92.9306C89.9964 103.063 84.0008 118.809 84.0008 118.809Z" fill="#FFC527"/>
<path d="M78.592 103.912C78.24 103.012 77.84 102.128 77.228 101.324C77.288 102.332 77.56 103.264 77.884 104.176C78.232 105.076 78.632 105.96 79.248 106.764C79.188 105.756 78.916 104.824 78.592 103.912ZM61.904 106.372C61.904 106.376 61.9 106.376 61.9 106.38C61.6 106.848 61.348 107.336 61.108 107.832C60.72 108.716 60.376 109.624 60.244 110.628C60.916 109.872 61.38 109.02 61.796 108.148C62.176 107.288 62.504 106.416 62.648 105.452C62.396 105.764 62.148 106.072 61.904 106.372ZM88.292 86.9202C87.904 87.8042 87.56 88.7122 87.428 89.7122C88.1 88.9562 88.564 88.1082 88.98 87.2322C89.372 86.3482 89.712 85.4402 89.848 84.4402C89.176 85.1962 88.712 86.0442 88.292 86.9202Z" fill="white"/>
<path d="M60.808 109.364C61.804 109.385 70.5612 110.795 72.4576 111.143C74.3552 111.491 82.1216 112.837 84.05 113.36C84.136 113.383 84.1228 113.507 84.0316 113.5C82.0492 113.35 74.2116 112.014 72.2724 111.699C70.3332 111.385 61.6992 109.798 60.7744 109.492C60.696 109.465 60.7404 109.362 60.808 109.364Z" fill="#263238"/>
<path d="M82.7256 118.513C83.5796 118.601 84.108 118.633 84.108 118.633C85.07 114.775 86.3068 110.827 87.436 107.016C88.5856 103.135 89.8504 99.2981 91.0464 95.4329C91.0652 95.3725 91.1544 95.4009 91.1396 95.4613C90.6004 97.6921 90.0564 99.9141 89.4908 102.131C89.6104 101.867 89.7316 101.603 89.8496 101.34C90.2704 100.399 90.7176 99.4709 91.1072 98.5153C91.1396 98.4353 91.2644 98.4701 91.2376 98.5553C90.9272 99.5461 90.5964 100.538 90.1608 101.481C89.8536 102.147 89.5036 102.785 89.1452 103.421C88.8128 104.691 88.4904 105.962 88.1248 107.227C87.0056 111.103 86.0584 115.489 84.6396 119.268C84.6396 119.268 83.622 119.065 82.6684 118.699C82.5512 118.655 82.6004 118.5 82.7256 118.513Z" fill="#263238"/>
<path d="M104.953 90.638C101.145 91.9324 93.8865 86.6188 90.7829 82.0464C90.5721 81.732 90.7453 78.196 90.7521 73.89C90.7461 71.2768 90.6777 68.3672 90.4241 65.7168C90.3693 65.1728 107.435 68.1624 107.435 68.1624C107.435 68.1624 106.333 73.8752 106.804 78.4932C106.848 78.8788 106.92 79.2344 107.022 79.57C107.033 79.6192 107.053 79.6784 107.064 79.748C107.598 81.782 108.633 89.384 104.953 90.638Z" fill="#D18F67"/>
<path d="M107.437 68.1636C107.437 68.1636 106.651 72.2308 106.689 76.2808C98.6101 79.0572 92.2337 74.7524 90.7517 73.6188C90.7433 71.0756 90.6709 68.2736 90.4249 65.718L107.437 68.1636Z" fill="#263238"/>
<path d="M114.728 60.6809C114.728 60.6809 114.098 64.6209 114.296 66.0341C114.494 67.4473 117.417 69.2413 117.417 69.2413C117.417 69.2413 113.754 70.0837 112.78 69.7301C111.807 69.3765 110.488 66.6285 110.488 66.6285C110.488 66.6285 111.504 70.9017 112.908 71.2809C113.78 71.5165 110.711 71.1973 110.711 71.1973C110.711 71.1973 109.082 70.9473 108.175 69.6481C107.268 68.3493 114.728 60.6809 114.728 60.6809Z" fill="#263238"/>
<path d="M115.55 46.0038C116.392 52.137 110.586 68.5282 105.821 71.6238C98.914 76.1122 88.9612 75.0446 85.4904 67.0518C82.1256 59.3042 90.0708 38.077 95.2664 35.403C102.918 31.4646 114.305 36.9438 115.55 46.0038Z" fill="#D18F67"/>
<path d="M98.7989 53.8479C98.8221 53.8091 98.8669 53.9303 98.8493 53.9747C98.4293 55.0639 98.1317 56.3823 99.0001 57.0963C99.0269 57.1183 99.0045 57.1723 98.9693 57.1543C97.8133 56.5587 98.2261 54.8127 98.7989 53.8479Z" fill="#263238"/>
<path d="M100.185 53.042C102.003 53.5272 100.899 57.1288 99.2145 56.6792C97.5565 56.2368 98.6605 52.6352 100.185 53.042Z" fill="#263238"/>
<path d="M92.1085 51.4617C92.1125 51.4169 92.0053 51.4885 91.9929 51.5349C91.6933 52.6633 91.1605 53.9053 90.0381 53.9733C90.0037 53.9753 89.9897 54.0325 90.0289 54.0385C91.3149 54.2345 92.0057 52.5789 92.1085 51.4617Z" fill="#263238"/>
<path d="M91.4597 49.9953C89.7029 49.3205 88.4821 52.8841 90.1097 53.5093C91.7121 54.1249 92.9325 50.5613 91.4597 49.9953Z" fill="#263238"/>
<path d="M102.582 50.377C102.078 50.2162 101.586 50.1526 101.071 50.045C100.49 49.9242 100.04 49.7678 99.4657 50.0002C99.1581 50.125 98.9737 50.577 99.0669 50.8874C99.2833 51.6102 99.9581 51.9354 100.652 52.1094C101.404 52.2986 102.032 52.2518 102.734 51.9238C103.414 51.6058 103.246 50.589 102.582 50.377Z" fill="#263238"/>
<path d="M91.4992 45.9449C92.0236 46.0165 92.5188 45.9953 93.0444 46.0121C93.6376 46.0317 94.108 46.1081 94.6332 45.7801C94.9152 45.6045 95.0192 45.1277 94.874 44.8377C94.5368 44.1629 93.816 43.9589 93.1028 43.9061C92.3292 43.8493 91.718 44.0033 91.0832 44.4473C90.468 44.8777 90.808 45.8505 91.4992 45.9449Z" fill="#263238"/>
<path d="M95.7452 62.6549C94.5092 61.6529 92.6384 61.2649 91.4456 61.0473C91.3232 60.9881 91.286 60.6985 91.3028 60.5705L91.3056 60.5625C91.3188 60.5221 92.1152 58.2333 92.1152 58.2333C91.7572 58.2909 89.9572 58.5053 90.1208 58.0705C91.4896 54.4773 93.0108 50.4813 95.1316 47.1945C95.196 47.0825 95.372 47.1685 95.3236 47.2857C94.1448 50.7913 92.3576 54.0661 91.118 57.5685C91.6816 57.5353 92.6132 57.4389 93.0536 57.5869C93.1632 57.6593 92.0704 60.0089 91.992 60.4013C91.992 60.4013 94.4488 60.4333 95.9152 62.1757C96.2952 62.6277 96.3344 63.1325 95.7452 62.6549Z" fill="#263238"/>
<path d="M97.0805 65.0244C96.7345 65.1976 96.3577 65.4684 95.9477 65.374C95.5545 65.284 95.1605 64.9672 94.8529 64.7188C94.8225 64.6944 94.7757 64.7196 94.7873 64.76C94.9377 65.274 95.4545 65.7308 95.9933 65.8044C96.5197 65.8768 96.9041 65.5248 97.1705 65.1076C97.2077 65.0496 97.1313 64.9988 97.0805 65.0244Z" fill="#263238"/>
<path d="M112.319 60.6194C109.726 58.8366 111.507 48.7282 111.507 48.7282L109.178 53.8282C109.178 53.8282 107.57 51.3038 107.332 48.5846C107.162 46.643 108.189 44.3514 108.855 43.2806C108.855 43.2806 104.56 45.5446 100.57 45.2802C99.102 45.183 89.186 41.7942 89.3928 41.1774C90.0096 39.3378 96.138 34.085 99.208 33.2242C102.742 32.2338 107.488 31.7206 112.657 35.9898C117.826 40.2586 118.096 44.5954 117.98 47.847C117.864 51.0994 113.272 61.2746 112.319 60.6194Z" fill="#263238"/>
<path d="M109.459 59.8693C109.459 59.8693 114.66 55.5669 116.712 57.5649C118.764 59.5625 113.826 66.5173 110.694 66.7905C107.561 67.0633 107.252 64.1685 107.252 64.1685L109.459 59.8693Z" fill="#D18F67"/>
<path d="M115.247 59.5229C115.294 59.5317 115.285 59.5981 115.241 59.6033C113.026 59.8597 111.468 61.4173 110.205 63.1289C111 62.5553 111.919 62.3745 112.711 63.3521C112.753 63.4033 112.68 63.4709 112.628 63.4437C111.86 63.0437 111.233 63.0225 110.501 63.5237C109.983 63.8785 109.555 64.3901 109.128 64.8469C108.985 64.9993 108.69 64.8149 108.814 64.6289C108.824 64.6149 108.834 64.6009 108.844 64.5869C109.495 62.0341 112.45 59.0257 115.247 59.5229Z" fill="#263238"/>
<path d="M105.528 32.5108C107.599 32.3344 110.028 32.2444 112.635 32.7796C115.241 33.3148 122.915 36.6024 124.268 38.824C125.622 41.0456 123.596 48.6408 123.278 49.7452C122.96 50.85 120.242 57.2496 117.325 58.026C114.409 58.8024 117.972 47.5708 115.475 42.5948C112.978 37.6196 105.528 32.5108 105.528 32.5108Z" fill="#FFC527"/>
<path opacity="0.1" d="M105.526 32.5124C105.526 32.5124 112.978 37.6208 115.472 42.5968C117.974 47.5688 114.408 58.8032 117.327 58.03C118.612 57.6872 119.473 56.8224 120.497 55.2248C121.106 51.796 121.507 46.2904 119.98 41.8636C118.55 37.7172 114.736 34.57 110.23 32.448C108.533 32.3092 106.948 32.3904 105.526 32.5124Z" fill="black"/>
<path d="M114.425 64.4281C115.222 61.3829 114.904 52.3981 113.284 46.7593C111.664 41.1205 103.248 35.2873 101.918 34.9193C98.6928 34.0265 97.294 34.6201 96.8888 34.1669C96.484 33.7137 100.55 32.4421 101.622 32.2121C102.694 31.9821 105.516 31.5377 106.88 32.0385C108.244 32.5393 116.438 36.2641 118.292 40.9285C120.145 45.5929 121.062 57.2109 119.381 59.5341C118.978 60.0913 118.013 60.2109 117.449 61.0041C116.708 62.0453 116.01 63.3033 115.384 63.9949C114.88 64.5525 114.355 64.6933 114.425 64.4281Z" fill="#FFC527"/>
<path d="M113.25 44.464C114.134 44.2616 114.98 44.0024 115.819 43.6548C116.646 43.3116 117.492 42.9056 118.216 42.3748C118.269 42.336 118.337 42.4064 118.286 42.4516C117.577 43.0836 116.844 43.632 115.969 44.0164C115.13 44.3856 114.185 44.6064 113.267 44.6392C113.165 44.6428 113.154 44.486 113.25 44.464Z" fill="#263238"/>
<path d="M115.463 61.4693C115.618 61.2825 115.824 61.1409 115.996 60.9693C116.192 60.7737 116.372 60.5613 116.523 60.3285C116.812 59.8829 116.966 59.3817 117.351 59.0001C117.656 58.6973 118.021 58.4733 118.384 58.2477C118.798 57.9913 119.213 57.7161 119.38 57.2389C119.403 57.1757 119.502 57.2061 119.48 57.2701C119.177 58.1745 118.353 58.6097 117.702 59.2309C117.284 59.6289 117.11 60.1821 116.769 60.6369C116.48 61.0217 116.051 61.4961 115.562 61.6113C115.49 61.6289 115.408 61.5345 115.463 61.4693Z" fill="#263238"/>
<path d="M115.529 57.9081C115.926 57.6649 116.332 57.4653 116.707 57.1821C117.066 56.9109 117.404 56.6045 117.724 56.2873C118.039 55.9737 118.328 55.6361 118.638 55.3165C119.003 54.9385 119.417 54.6005 119.764 54.2065C119.808 54.1561 119.878 54.2337 119.834 54.2837C119.474 54.6925 119.185 55.1649 118.839 55.5865C118.541 55.9497 118.204 56.2869 117.861 56.6077C117.53 56.9169 117.179 57.1973 116.795 57.4377C116.431 57.6657 115.98 57.9017 115.549 57.9609C115.517 57.9661 115.501 57.9257 115.529 57.9081Z" fill="#263238"/>
<path d="M115.436 54.6344C116.227 54.32 117.008 53.888 117.675 53.358C118.334 52.8348 118.965 52.2696 119.587 51.7032C119.629 51.6648 119.704 51.7228 119.666 51.7704C119.118 52.4572 118.578 53.1408 117.875 53.6788C117.542 53.934 117.182 54.1896 116.797 54.36C116.378 54.5456 115.924 54.6556 115.474 54.7364C115.416 54.7468 115.376 54.6588 115.436 54.6344Z" fill="#263238"/>
<path d="M115.204 51.4522C115.608 51.367 115.926 51.1482 116.263 50.9242C116.634 50.6786 116.999 50.4238 117.356 50.1582C117.698 49.903 118.047 49.6574 118.388 49.4018C118.732 49.1446 119.081 48.8726 119.292 48.4914C119.321 48.4406 119.407 48.4806 119.386 48.5354C119.226 48.9442 118.953 49.2706 118.65 49.5814C118.318 49.9214 117.968 50.2374 117.582 50.5154C117.202 50.7886 116.811 51.0434 116.4 51.2658C116.042 51.4602 115.634 51.6458 115.218 51.5962C115.14 51.587 115.119 51.4702 115.204 51.4522Z" fill="#263238"/>
<path d="M115.555 47.6352C115.923 47.4588 116.288 47.2804 116.64 47.0752C116.991 46.8712 117.333 46.6488 117.67 46.4228C118.023 46.1864 118.386 45.9544 118.723 45.6968C118.776 45.656 118.838 45.7244 118.793 45.774C118.502 46.0908 118.215 46.398 117.878 46.6684C117.547 46.9332 117.198 47.1668 116.834 47.3824C116.476 47.594 116.107 47.7964 115.725 47.9604C115.356 48.1188 114.935 48.3052 114.529 48.3076C114.469 48.308 114.432 48.2192 114.483 48.1808C114.798 47.9428 115.2 47.8052 115.555 47.6352Z" fill="#263238"/>
<path d="M111.546 42.0001C111.963 41.7345 112.37 41.4745 112.812 41.2493C113.26 41.0209 113.725 40.8217 114.195 40.6445C115.116 40.2973 116.054 40.0137 117.03 39.8745C117.084 39.8669 117.124 39.9481 117.066 39.9717C115.25 40.6977 113.403 41.3489 111.594 42.0925C111.532 42.1181 111.489 42.0365 111.546 42.0001Z" fill="#263238"/>
<path d="M110.613 38.8454C111.035 38.5906 111.479 38.3838 111.947 38.231C112.928 37.911 113.952 37.7782 114.976 37.6798C115.041 37.6734 115.066 37.7638 114.999 37.7814C114.054 38.0318 113.104 38.2666 112.175 38.5706C111.717 38.7206 111.256 38.8802 110.817 39.0798C110.375 39.281 109.99 39.5706 109.56 39.789C109.526 39.8058 109.486 39.7658 109.509 39.733C109.779 39.357 110.222 39.0814 110.613 38.8454Z" fill="#263238"/>
<path d="M108.534 36.838C108.931 36.5796 109.351 36.3716 109.791 36.1984C110.626 35.8704 111.5 35.6984 112.395 35.6624C112.455 35.66 112.462 35.7532 112.405 35.7652C111.535 35.954 110.676 36.2196 109.851 36.554C109.437 36.722 109.032 36.912 108.625 37.096C108.22 37.2792 107.835 37.5544 107.414 37.6952C107.38 37.7068 107.362 37.6588 107.384 37.6368C107.707 37.3196 108.156 37.0848 108.534 36.838Z" fill="#263238"/>
<path d="M107.249 34.7489C107.648 34.6009 108.053 34.4745 108.46 34.3505C108.861 34.2281 109.267 34.1125 109.69 34.1205C109.753 34.1217 109.752 34.2049 109.699 34.2233C108.926 34.4997 108.158 34.7945 107.391 35.0881C106.668 35.3645 106.086 35.8397 105.443 36.2533C105.415 36.2717 105.38 36.2313 105.399 36.2049C105.877 35.5477 106.484 35.0333 107.249 34.7489Z" fill="#263238"/>
<path d="M105.181 33.5117C105.94 33.1413 106.752 33.0133 107.585 32.9501C107.644 32.9457 107.653 33.0453 107.595 33.0529C106.808 33.1553 106.045 33.4649 105.33 33.7965C104.6 34.1353 103.944 34.5905 103.306 35.0769C103.276 35.1001 103.224 35.0653 103.251 35.0297C103.751 34.3729 104.444 33.8717 105.181 33.5117Z" fill="#263238"/>
<path d="M101.807 33.8493C101.932 33.7173 102.074 33.5977 102.215 33.4841C102.502 33.2537 102.825 33.0661 103.153 32.9005C103.826 32.5617 104.556 32.3721 105.28 32.1749C105.345 32.1573 105.368 32.2601 105.303 32.2765C104.595 32.4541 103.917 32.7349 103.271 33.0749C102.954 33.2421 102.655 33.4369 102.365 33.6489C102.224 33.7525 102.09 33.8641 101.958 33.9797C101.834 34.0885 101.711 34.2353 101.569 34.3173C101.531 34.3393 101.479 34.2973 101.496 34.2553C101.553 34.1053 101.696 33.9657 101.807 33.8493Z" fill="#263238"/>
<path d="M99.964 33.4008C100.214 33.2252 100.467 33.064 100.736 32.9184C101.003 32.7728 101.272 32.6452 101.556 32.5344C101.845 32.4216 102.139 32.3204 102.422 32.1948C102.49 32.1644 102.53 32.266 102.458 32.2916C102.165 32.3972 101.888 32.5472 101.617 32.7008C101.362 32.8468 101.104 32.9888 100.848 33.1336C100.592 33.2784 100.336 33.4228 100.082 33.5692C99.8244 33.7168 99.5772 33.906 99.3056 34.0244C99.2604 34.044 99.2268 33.9916 99.258 33.9564C99.4528 33.7372 99.7248 33.5688 99.964 33.4008Z" fill="#263238"/>
<path d="M142.107 135.59C148.963 140.042 154.91 132.27 154.639 126.566C154.002 113.181 141.307 91.7731 133.819 84.4839C131.025 81.7643 113.526 97.3595 115.118 101.213C116.857 105.421 129.354 127.307 142.107 135.59Z" fill="#D18F67"/>
<path d="M120.271 110.319C122.807 113.794 126.312 118.677 128.883 122.042C131.843 125.858 134.742 129.774 138.436 132.926C131.701 128.57 124.225 117.393 120.271 110.319Z" fill="#263238"/>
<path d="M116.151 76.3332C116.794 73.8064 114.641 68.5844 114.577 64.9436C114.513 61.3028 117.774 58.0624 118.993 58.8464C120.212 59.6304 119.694 61.228 121.681 66.3332C122.958 69.6164 128.361 74.85 130.011 81.1192C130.84 84.2692 115.507 78.86 116.151 76.3332Z" fill="#D18F67"/>
<path d="M116.151 76.3332C116.794 73.8064 114.641 68.5844 114.577 64.9436C114.513 61.3028 117.774 58.0624 118.993 58.8464C120.212 59.6304 119.694 61.228 121.681 66.3332C122.958 69.6164 128.361 74.85 130.011 81.1192C130.84 84.2692 115.507 78.86 116.151 76.3332Z" fill="#D18F67"/>
<path opacity="0.1" d="M116.151 76.3332C116.794 73.8064 114.641 68.5844 114.577 64.9436C114.513 61.3028 117.774 58.0624 118.993 58.8464C120.212 59.6304 119.694 61.228 121.681 66.3332C122.958 69.6164 128.361 74.85 130.011 81.1192C130.84 84.2692 115.507 78.86 116.151 76.3332Z" fill="black"/>
<path d="M95.9672 67.498C94.7916 70.5352 102.526 72.7988 102.526 72.7988C102.526 72.7988 100.316 73.218 99.0748 74.988C97.6536 77.0148 100.209 80.132 100.209 80.132C100.209 80.132 98.0592 81.0196 96.9364 83.0208C95.7712 85.0976 97.9008 88.6108 97.9008 88.6108C97.9008 88.6108 96.3528 90.5376 96.6232 92.9636C97.0856 97.1112 103.058 99.47 106.466 101.66C110.117 104.007 118.917 104.671 120.909 106.629L134.453 85.4476C134.453 85.4476 122.018 69.78 117.446 68.2816C113.594 67.0188 97.764 62.8556 95.9672 67.498Z" fill="#D18F67"/>
<path d="M102.622 72.7365C107.04 73.0961 111.362 74.5121 115.519 75.9245C115.612 75.9561 115.561 76.1004 115.469 76.068C111.351 74.6152 106.746 74.2289 102.58 72.9433C102.464 72.9073 102.503 72.7269 102.622 72.7365Z" fill="#263238"/>
<path d="M100.436 79.8652C101.433 79.9768 102.39 80.4164 103.315 80.7828C104.31 81.1776 105.298 81.5896 106.28 82.0168C108.246 82.872 110.192 83.772 112.111 84.7288C112.196 84.7712 112.152 84.912 112.06 84.8724C110.1 84.0232 108.126 83.204 106.132 82.438C105.134 82.0548 104.132 81.6804 103.128 81.3124C102.194 80.97 101.181 80.6868 100.34 80.142C100.216 80.062 100.286 79.8484 100.436 79.8652Z" fill="#263238"/>
<path d="M97.9844 88.6444C98.8548 88.7064 99.75 89.2492 100.532 89.6088C101.42 90.0168 102.309 90.4204 103.201 90.8188C104.985 91.6156 106.769 92.4112 108.58 93.1452C108.67 93.182 108.62 93.3252 108.529 93.2884C106.686 92.552 104.833 91.8408 102.996 91.0876C102.094 90.718 101.194 90.3436 100.297 89.9636C99.5336 89.6408 98.5428 89.3244 97.9412 88.7312C97.9072 88.6992 97.9408 88.6412 97.9844 88.6444Z" fill="#263238"/>
<path d="M98.574 96.4528C96.0996 94.14 95.6988 91.2324 97.7888 88.4944L97.7796 88.7812C96.7104 87.0864 95.7336 84.8972 96.6168 82.9012C97.3632 81.4236 98.6476 80.3024 100.242 79.774L100.069 80.4108C97.9268 78.2812 97.4104 74.2112 100.584 72.7784C100.994 72.608 101.39 72.4968 101.868 72.4672L101.755 73.222C99.7716 72.4708 97.8244 71.6004 96.346 70.0076C94.9604 68.462 95.438 66.5192 97.4848 65.9576C100.008 65.2452 102.684 65.4964 105.236 65.7184C107.284 65.9328 109.32 66.2368 111.333 66.6524C108.287 66.2252 105.22 65.9036 102.146 65.9196C100.636 65.9412 99.0932 66.0028 97.662 66.48C96.7816 66.7576 95.9852 67.3972 96.2008 68.3856C96.8232 70.5124 100.077 71.7376 102.002 72.4872L103.785 73.1152L101.889 73.242C100.469 73.3292 99.3076 74.5024 99.1384 75.9204C98.892 77.58 99.8972 79.196 101.028 80.3304L100.438 80.5108C99.1048 80.9192 97.872 81.946 97.2252 83.2056C96.42 84.9188 97.3104 86.9652 98.1892 88.5076L98.2836 88.6644L98.18 88.7944C96.0548 91.3736 96.3812 94.042 98.574 96.4528Z" fill="#263238"/>
<path d="M141.594 150.514C142.292 150.919 143.045 151.228 143.808 151.489C144.529 151.737 145.302 152.034 146.057 152.15C146.47 152.213 146.85 152.107 147.104 151.845C147.141 151.808 147.175 151.764 147.206 151.72C147.241 151.71 147.266 151.673 147.258 151.638C147.265 151.628 147.327 151.581 147.352 151.559C147.358 151.557 147.363 151.557 147.366 151.555C147.4 151.535 147.462 151.466 147.516 151.386C147.592 151.276 147.653 151.15 147.596 151.126C147.734 150.683 147.685 150.216 147.602 149.75C147.462 148.964 147.29 148.177 147.072 147.408C146.868 146.686 146.62 145.974 146.281 145.303C146.067 144.879 145.788 144.259 145.262 144.165C145.106 144.136 144.965 144.164 144.842 144.226C144.825 144.234 144.808 144.243 144.792 144.254C144.569 144.392 144.416 144.657 144.358 144.92C144.232 145.488 144.499 146.073 144.738 146.574C145.065 147.255 145.4 147.932 145.737 148.61C145.539 148.335 145.342 148.055 145.139 147.784C144.605 147.06 144.052 146.351 143.469 145.668C143.062 145.195 142.609 144.538 141.976 144.355C141.679 144.268 141.334 144.308 141.09 144.485C141.052 144.512 141.015 144.544 140.981 144.582C140.92 144.645 140.87 144.722 140.834 144.81C140.67 145.21 140.888 145.639 141.123 145.96C141.601 146.616 142.229 147.192 142.783 147.782C143.368 148.404 143.96 149.02 144.566 149.621C144.669 149.722 144.771 149.822 144.874 149.922C144.039 149.371 143.191 148.834 142.361 148.292C141.861 147.966 141.278 147.613 140.662 147.82C140.445 147.893 140.28 148.023 140.172 148.189C140.152 148.217 140.135 148.244 140.12 148.275C140.109 148.298 140.098 148.32 140.09 148.343C140.078 148.366 140.07 148.389 140.063 148.413C139.998 148.611 139.999 148.837 140.067 149.063C140.272 149.743 141.021 150.178 141.594 150.514Z" fill="#FFC527"/>
<path opacity="0.1" d="M140.062 148.412C140.909 149.311 142.064 149.855 143.191 150.359C144.463 150.924 145.782 151.4 147.103 151.844C147.14 151.807 147.175 151.764 147.206 151.719C147.241 151.709 147.265 151.672 147.258 151.637C147.264 151.627 147.327 151.58 147.352 151.559C147.357 151.556 147.363 151.557 147.366 151.554C147.4 151.535 147.461 151.466 147.515 151.385C147.486 151.346 147.459 151.306 147.43 151.267C147.3 150.087 146.96 148.95 146.578 147.824C146.173 146.63 145.825 145.101 144.842 144.226C144.824 144.233 144.807 144.243 144.792 144.254L144.8 144.264C144.894 145.509 145.317 146.718 145.755 147.878C146.062 148.69 146.383 149.498 146.719 150.298C146.002 149.343 145.252 148.413 144.453 147.527C143.832 146.838 143.184 146.173 142.503 145.547C142.067 145.143 141.614 144.757 141.089 144.484C141.052 144.512 141.015 144.544 140.98 144.581C141.679 145.947 142.868 147.048 143.911 148.145C145.021 149.312 146.122 150.491 147.242 151.646C146.106 150.955 144.853 150.401 143.681 149.791C142.536 149.197 141.406 148.563 140.172 148.189C140.152 148.216 140.135 148.244 140.12 148.275C141.389 148.747 142.571 149.363 143.774 149.99C144.819 150.537 145.898 151.043 146.927 151.627C145.798 151.23 144.669 150.838 143.568 150.366C142.346 149.844 141.065 149.269 140.089 148.343C140.078 148.365 140.07 148.388 140.062 148.412ZM147.288 151.071C147.218 150.975 147.15 150.879 147.079 150.783C146.18 148.681 145.327 146.557 144.85 144.315C145.723 145.247 146.076 146.713 146.469 147.875C146.823 148.919 147.144 149.981 147.288 151.071ZM144.142 148.195C143.032 147.029 141.928 145.901 141.046 144.556C142.371 145.443 143.493 146.641 144.542 147.831C145.39 148.794 146.182 149.802 146.944 150.835C147.022 151.019 147.103 151.201 147.184 151.383C146.18 150.312 145.155 149.258 144.142 148.195Z" fill="black"/>
<path d="M145.706 152.349C145.944 152.632 148.02 153.961 148.804 154.349C149.289 154.588 150 153.887 149.689 153.23C149.55 152.935 148.214 150.672 147.978 150.285C147.696 149.822 146.697 150.673 146.431 150.897C146.088 151.185 145.41 152.001 145.706 152.349Z" fill="#263238"/>
<path d="M148.191 152.674C149.644 153.802 150.916 155.278 152.039 156.727C153.166 158.181 154.156 159.74 155.001 161.374C156.7 164.659 157.949 168.385 158.13 172.1C158.135 172.196 157.996 172.227 157.978 172.126C157.332 168.465 156.379 164.946 154.665 161.627C153.824 159.998 152.837 158.444 151.723 156.988C150.586 155.502 149.287 154.228 147.992 152.889C147.876 152.77 148.06 152.572 148.191 152.674Z" fill="#263238"/>
<path d="M145.062 159.495C145.541 159.653 146.042 159.744 146.542 159.805C147.016 159.864 147.527 159.945 148.004 159.919C148.265 159.904 148.484 159.79 148.605 159.597C148.623 159.569 148.639 159.538 148.652 159.507C148.672 159.496 148.682 159.471 148.673 159.45C148.676 159.443 148.708 159.406 148.72 159.39C148.724 159.388 148.727 159.387 148.728 159.386C148.747 159.369 148.776 159.319 148.798 159.263C148.83 159.186 148.852 159.101 148.813 159.093C148.84 158.805 148.75 158.525 148.639 158.25C148.452 157.788 148.245 157.328 148.012 156.886C147.794 156.47 147.55 156.067 147.256 155.7C147.07 155.468 146.819 155.125 146.485 155.135C146.386 155.138 146.303 155.172 146.236 155.227C146.226 155.233 146.217 155.242 146.209 155.25C146.09 155.363 146.03 155.545 146.03 155.714C146.026 156.078 146.264 156.402 146.476 156.677C146.764 157.052 147.056 157.423 147.35 157.794C147.193 157.651 147.037 157.506 146.877 157.365C146.457 156.992 146.027 156.629 145.582 156.287C145.272 156.05 144.909 155.706 144.498 155.676C144.305 155.661 144.099 155.73 143.972 155.87C143.952 155.892 143.934 155.916 143.918 155.944C143.889 155.99 143.868 156.043 143.858 156.102C143.809 156.368 143.998 156.602 144.183 156.768C144.56 157.108 145.02 157.38 145.435 157.669C145.873 157.974 146.315 158.274 146.764 158.564C146.84 158.612 146.916 158.66 146.992 158.708C146.409 158.479 145.82 158.26 145.242 158.035C144.895 157.901 144.492 157.76 144.142 157.966C144.018 158.039 143.934 158.14 143.89 158.256C143.881 158.275 143.874 158.294 143.869 158.315C143.865 158.33 143.861 158.346 143.859 158.36C143.855 158.376 143.853 158.391 143.852 158.406C143.838 158.536 143.867 158.674 143.938 158.804C144.152 159.194 144.667 159.363 145.062 159.495Z" fill="#FFC527"/>
<path opacity="0.1" d="M143.852 158.407C144.486 158.848 145.264 159.031 146.018 159.194C146.87 159.375 147.738 159.496 148.605 159.597C148.623 159.569 148.638 159.538 148.651 159.507C148.672 159.496 148.682 159.471 148.673 159.45C148.675 159.443 148.708 159.406 148.72 159.39C148.723 159.388 148.726 159.387 148.728 159.386C148.746 159.369 148.775 159.319 148.798 159.263C148.775 159.243 148.753 159.221 148.73 159.201C148.498 158.496 148.143 157.844 147.764 157.204C147.362 156.526 146.951 155.636 146.236 155.227C146.226 155.233 146.217 155.242 146.208 155.25L146.215 155.256C146.434 156.006 146.849 156.69 147.266 157.344C147.56 157.801 147.86 158.254 148.17 158.7C147.607 158.209 147.028 157.737 146.424 157.298C145.956 156.956 145.473 156.633 144.975 156.338C144.656 156.147 144.329 155.969 143.972 155.87C143.953 155.892 143.934 155.916 143.918 155.944C144.522 156.689 145.393 157.209 146.173 157.746C147.003 158.316 147.829 158.896 148.664 159.458C147.879 159.182 147.041 159.005 146.245 158.783C145.468 158.568 144.694 158.325 143.89 158.256C143.882 158.276 143.874 158.294 143.87 158.315C144.707 158.44 145.51 158.664 146.328 158.893C147.038 159.092 147.764 159.262 148.469 159.487C147.727 159.39 146.985 159.296 146.25 159.149C145.435 158.988 144.576 158.802 143.86 158.361C143.856 158.376 143.853 158.391 143.852 158.407ZM148.618 159.099C148.562 159.05 148.509 159 148.453 158.95C147.631 157.78 146.834 156.591 146.252 155.28C146.907 155.738 147.312 156.589 147.704 157.25C148.055 157.843 148.388 158.451 148.618 159.099ZM146.32 157.746C145.491 157.176 144.669 156.629 143.955 155.92C144.881 156.291 145.723 156.879 146.518 157.472C147.162 157.952 147.777 158.466 148.377 159C148.448 159.102 148.522 159.203 148.595 159.304C147.841 158.778 147.078 158.266 146.32 157.746Z" fill="black"/>
<path d="M147.815 160.086C147.997 160.228 149.44 160.774 149.97 160.909C150.298 160.993 150.642 160.472 150.366 160.11C150.243 159.948 149.133 158.736 148.938 158.53C148.706 158.283 148.204 158.932 148.071 159.104C147.898 159.324 147.589 159.912 147.815 160.086Z" fill="#263238"/>
<path d="M149.378 159.964C150.413 160.466 151.383 161.205 152.257 161.947C153.134 162.691 153.942 163.518 154.671 164.408C156.135 166.199 157.381 168.318 157.973 170.568C157.988 170.626 157.907 170.663 157.883 170.604C157.014 168.446 155.976 166.416 154.497 164.606C153.772 163.718 152.967 162.895 152.097 162.148C151.209 161.386 150.249 160.774 149.283 160.122C149.197 160.063 149.284 159.918 149.378 159.964Z" fill="#263238"/>
<path d="M177.544 163.021C176.811 163.358 176.033 163.594 175.248 163.782C174.507 163.961 173.71 164.183 172.947 164.227C172.53 164.251 172.162 164.109 171.934 163.824C171.901 163.784 171.87 163.738 171.844 163.69C171.81 163.677 171.789 163.638 171.799 163.604C171.794 163.592 171.736 163.54 171.714 163.516C171.708 163.513 171.703 163.513 171.7 163.51C171.668 163.487 171.613 163.413 171.567 163.328C171.502 163.211 171.452 163.08 171.512 163.061C171.416 162.608 171.509 162.147 171.636 161.691C171.849 160.922 172.096 160.154 172.385 159.41C172.656 158.71 172.97 158.025 173.371 157.389C173.625 156.987 173.961 156.396 174.493 156.352C174.652 156.338 174.79 156.378 174.906 156.453C174.922 156.462 174.938 156.473 174.953 156.486C175.162 156.644 175.29 156.922 175.322 157.189C175.394 157.767 175.073 158.324 174.788 158.799C174.397 159.446 174 160.09 173.6 160.732C173.824 160.477 174.046 160.217 174.274 159.966C174.874 159.296 175.492 158.642 176.137 158.018C176.586 157.586 177.099 156.974 177.747 156.852C178.051 156.794 178.39 156.866 178.618 157.065C178.652 157.096 178.686 157.132 178.717 157.172C178.772 157.241 178.814 157.322 178.841 157.413C178.967 157.828 178.709 158.233 178.444 158.53C177.906 159.138 177.227 159.653 176.619 160.188C175.978 160.752 175.33 161.308 174.67 161.85C174.558 161.941 174.447 162.03 174.335 162.12C175.218 161.65 176.114 161.196 176.992 160.734C177.52 160.458 178.133 160.161 178.728 160.425C178.937 160.518 179.088 160.664 179.18 160.84C179.198 160.869 179.212 160.898 179.224 160.93C179.232 160.954 179.242 160.977 179.248 161.001C179.257 161.024 179.263 161.048 179.268 161.073C179.314 161.276 179.292 161.501 179.202 161.72C178.934 162.378 178.147 162.741 177.544 163.021Z" fill="#FFC527"/>
<path opacity="0.1" d="M179.248 161.002C178.189 161.832 176.859 162.283 175.594 162.687C174.453 163.053 173.291 163.337 172.131 163.625C173.21 163.141 174.332 162.739 175.424 162.294C176.681 161.783 177.916 161.282 179.224 160.932C179.212 160.9 179.198 160.871 179.181 160.841C177.916 161.097 176.732 161.622 175.536 162.105C174.311 162.601 173.012 163.035 171.815 163.615C173.04 162.571 174.246 161.501 175.462 160.445C176.604 159.451 177.892 158.468 178.717 157.174C178.686 157.133 178.653 157.099 178.618 157.067C178.069 157.289 177.582 157.631 177.11 157.991C176.372 158.55 175.664 159.151 174.982 159.778C174.102 160.585 173.268 161.439 172.463 162.323C172.873 161.557 173.269 160.784 173.652 160.005C174.197 158.891 174.732 157.728 174.944 156.497L174.954 156.488C174.939 156.475 174.923 156.464 174.906 156.455C173.845 157.234 173.353 158.723 172.838 159.873C172.351 160.958 171.905 162.057 171.664 163.22C171.632 163.256 171.6 163.294 171.568 163.33C171.614 163.415 171.668 163.489 171.7 163.512C171.703 163.515 171.708 163.515 171.714 163.518C171.737 163.542 171.794 163.595 171.8 163.606C171.789 163.64 171.81 163.679 171.844 163.692C171.871 163.739 171.901 163.786 171.934 163.827C173.292 163.509 174.65 163.16 175.97 162.717C177.139 162.322 178.34 161.891 179.268 161.075C179.263 161.049 179.257 161.026 179.248 161.002ZM172.941 159.934C173.442 158.814 173.932 157.388 174.89 156.542C174.202 158.73 173.152 160.763 172.058 162.771C171.979 162.86 171.902 162.949 171.823 163.037C172.07 161.966 172.49 160.94 172.941 159.934ZM171.898 163.358C171.996 163.185 172.094 163.011 172.189 162.835C173.045 161.879 173.929 160.95 174.864 160.072C176.02 158.986 177.25 157.899 178.654 157.142C177.649 158.398 176.442 159.416 175.228 160.471C174.119 161.435 172.999 162.387 171.898 163.358Z" fill="black"/>
<path d="M173.278 164.46C173.014 164.718 170.821 165.846 170.004 166.157C169.499 166.349 168.857 165.584 169.229 164.96C169.396 164.68 170.94 162.553 171.211 162.19C171.536 161.755 172.45 162.696 172.693 162.944C173.007 163.264 173.605 164.141 173.278 164.46Z" fill="#263238"/>
<path d="M170.773 164.548C169.22 165.533 167.814 166.883 166.56 168.219C165.3 169.56 164.167 171.019 163.171 172.566C161.169 175.675 159.573 179.266 159.042 182.947C159.028 183.042 159.163 183.086 159.19 182.988C160.18 179.404 161.462 175.991 163.482 172.849C164.473 171.306 165.602 169.853 166.849 168.508C168.121 167.137 169.535 165.991 170.951 164.781C171.078 164.673 170.914 164.458 170.773 164.548Z" fill="#263238"/>
<path d="M172.016 146.825C171.813 147.218 169.745 149.323 168.934 149.984C168.432 150.392 167.415 149.764 167.603 148.915C167.688 148.534 168.642 145.537 168.814 145.022C169.02 144.407 170.413 145.133 170.782 145.323C171.259 145.568 172.267 146.34 172.016 146.825Z" fill="#263238"/>
<path d="M177.818 150.233C176.007 151.509 174.396 152.966 173.166 154.823C171.932 156.688 171.036 158.748 170.034 160.739C168.453 163.87 166.372 167.099 162.947 168.394C162.828 168.439 162.748 168.318 162.776 168.224C162.772 168.217 162.767 168.21 162.77 168.2C163.127 166.448 163.68 164.745 164.418 163.118C167.019 157.368 171.855 152.452 177.699 150C177.842 149.939 177.939 150.148 177.818 150.233Z" fill="#263238"/>
<path d="M169.202 147.866C167.807 149.57 166.717 151.632 165.794 153.622C164.867 155.619 164.127 157.702 163.577 159.834C162.47 164.12 162.006 168.8 162.786 173.183C162.806 173.296 162.976 173.296 162.97 173.173C162.747 168.729 162.921 164.369 164.036 160.04C164.583 157.914 165.32 155.838 166.232 153.842C167.162 151.806 168.338 149.972 169.492 148.064C169.596 147.894 169.328 147.712 169.202 147.866Z" fill="#263238"/>
<path d="M172.009 150.604C171.932 150.601 171.856 150.594 171.785 150.585C171.737 150.58 171.689 150.572 171.642 150.563C170.174 150.306 169.748 148.976 169.748 148.976C169.748 148.976 169.748 148.976 169.746 148.976C169.733 148.977 169.677 148.986 169.583 148.992C169.021 149.033 167.156 149.05 166.186 147.618C166.05 147.416 165.952 147.21 165.887 147.006C165.867 146.944 165.85 146.88 165.836 146.819C165.57 145.645 166.29 144.53 166.571 144.153C166.636 144.066 166.678 144.018 166.678 144.018C166.678 144.018 166.662 144.008 166.634 143.989C166.356 143.791 164.852 142.639 165.498 140.976C165.586 140.752 165.69 140.556 165.803 140.385C165.842 140.327 165.882 140.272 165.922 140.22C166.595 139.361 167.541 139.244 167.86 139.229C167.932 139.225 167.971 139.227 167.971 139.227C167.971 139.227 167.966 139.173 167.967 139.078C167.964 138.794 167.995 138.142 168.279 137.492C168.291 137.462 168.305 137.434 168.319 137.406C168.569 136.871 169 136.348 169.731 136.045C169.842 135.998 169.952 135.96 170.059 135.931C170.085 135.923 170.11 135.917 170.134 135.911C170.49 135.819 170.815 135.812 171.111 135.858C171.14 135.861 171.166 135.866 171.193 135.871C172.105 136.039 172.704 136.697 172.871 136.904C172.905 136.945 172.922 136.967 172.922 136.967C172.922 136.967 172.933 136.962 172.955 136.95C173.21 136.834 174.894 136.12 176.118 137.142C177.444 138.248 177.008 139.635 177.008 139.635C177.008 139.635 177.033 139.638 177.077 139.647C177.118 139.654 177.175 139.666 177.244 139.683C177.587 139.772 178.232 140.012 178.716 140.619C178.74 140.649 178.764 140.68 178.788 140.712C179.014 141.024 179.196 141.424 179.284 141.938C179.585 143.7 178.218 144.583 177.793 144.812C177.743 144.838 177.708 144.855 177.688 144.865C177.675 144.87 177.67 144.873 177.67 144.873C177.67 144.873 178.34 146.923 177.384 148.227C176.819 148.996 175.955 149.158 175.341 149.16C175.276 149.161 175.215 149.16 175.158 149.158C174.828 149.143 174.606 149.09 174.606 149.09C174.606 149.09 174.236 149.797 173.467 150.245C173.419 150.275 173.368 150.302 173.316 150.328C172.958 150.509 172.523 150.628 172.009 150.604Z" fill="#FFC527"/>
<path opacity="0.1" d="M172.1 144.799C172.087 144.206 172.077 143.6 171.99 143.009C171.975 143.03 171.958 143.047 171.943 143.068C171.785 144.294 171.324 145.522 170.854 146.637C170.59 147.268 170.296 147.887 169.987 148.498C169.906 148.656 169.827 148.816 169.746 148.976C169.734 148.977 169.677 148.985 169.584 148.992C169.646 148.876 169.709 148.762 169.768 148.646C170.114 147.974 170.44 147.294 170.733 146.597C171.222 145.436 171.523 144.26 171.82 143.053C171.812 143.034 171.811 143.013 171.824 142.99C171.83 142.983 171.836 142.976 171.84 142.969C171.844 142.948 171.85 142.928 171.855 142.907C170.95 143.777 169.844 144.458 168.805 145.14C168.158 145.566 167.506 145.983 166.85 146.392C166.534 146.588 166.214 146.805 165.887 147.006C165.867 146.944 165.85 146.88 165.836 146.819C166.104 146.66 166.377 146.507 166.635 146.348C167.269 145.958 167.897 145.561 168.522 145.156C169.675 144.411 170.784 143.633 171.853 142.776C171.844 142.772 171.839 142.766 171.834 142.761C170.75 143.134 169.634 143.409 168.52 143.678C167.888 143.831 167.257 143.978 166.627 144.137C166.608 144.141 166.589 144.146 166.57 144.152C166.636 144.065 166.677 144.017 166.677 144.017C166.677 144.017 166.662 144.007 166.634 143.988C167.224 143.842 167.816 143.702 168.406 143.56C169.553 143.284 170.696 142.993 171.837 142.694C171.839 142.694 171.839 142.692 171.841 142.69C171.035 142.554 170.239 142.41 169.421 142.341C168.543 142.267 167.672 142.309 166.793 142.276C166.766 142.275 166.763 142.234 166.788 142.23C167.649 142.098 168.562 142.144 169.427 142.21C170.181 142.266 170.947 142.365 171.686 142.537C171.641 142.501 171.596 142.464 171.553 142.428C170.582 141.941 169.596 141.487 168.567 141.128C167.978 140.922 167.381 140.743 166.778 140.592C166.456 140.511 166.128 140.449 165.803 140.384C165.841 140.327 165.882 140.271 165.922 140.219C166.866 140.389 167.817 140.718 168.685 141.026C169.536 141.328 170.372 141.682 171.172 142.106C170.578 141.587 170.012 141.036 169.431 140.503C168.939 140.053 168.392 139.648 167.859 139.229C167.931 139.225 167.971 139.227 167.971 139.227C167.971 139.227 167.966 139.173 167.967 139.078C168.457 139.473 168.946 139.872 169.411 140.298C170.162 140.983 170.891 141.688 171.644 142.368C171.703 142.402 171.763 142.435 171.82 142.47C170.482 140.933 169.193 139.318 168.279 137.492C168.291 137.462 168.305 137.434 168.318 137.405C168.773 138.232 169.259 139.04 169.812 139.809C170.449 140.692 171.172 141.504 171.858 142.349C171.463 141.275 171.165 140.152 170.857 139.055C170.566 138.02 170.288 136.98 170.059 135.93C170.084 135.922 170.11 135.916 170.133 135.91C170.402 136.923 170.66 137.936 170.945 138.946C171.262 140.074 171.646 141.187 171.964 142.314C171.903 140.119 171.608 137.988 171.111 135.858C171.14 135.861 171.166 135.866 171.193 135.87C171.72 137.616 172.001 139.463 172.057 141.293C172.122 140.599 172.236 139.904 172.353 139.23C172.489 138.446 172.651 137.667 172.871 136.903C172.905 136.944 172.922 136.966 172.922 136.966C172.922 136.966 172.933 136.961 172.955 136.95C172.768 137.766 172.584 138.58 172.444 139.407C172.27 140.435 172.206 141.468 172.069 142.5C172.069 142.504 172.067 142.506 172.065 142.509L172.064 142.529C172.068 142.527 172.07 142.526 172.072 142.524C172.3 141.629 172.82 140.828 173.321 140.064C173.857 139.248 174.444 138.491 175.19 137.857C175.21 137.84 175.238 137.868 175.219 137.887C174.518 138.545 173.952 139.331 173.438 140.139C172.986 140.85 172.55 141.565 172.264 142.358C172.296 142.331 172.329 142.309 172.361 142.283C173.572 140.901 175.32 140.193 177.077 139.646C177.118 139.653 177.175 139.664 177.244 139.682C176.398 139.964 175.558 140.276 174.765 140.666C174.162 140.962 173.632 141.328 173.152 141.751C173.806 141.382 174.523 141.124 175.261 140.934C176.395 140.64 177.555 140.513 178.716 140.617C178.74 140.647 178.764 140.679 178.787 140.71C177.67 140.64 176.544 140.766 175.456 141.036C174.489 141.276 173.522 141.615 172.703 142.184C172.579 142.309 172.46 142.44 172.342 142.577C174.187 142.116 176.245 141.923 178.097 142.396C178.164 142.413 178.143 142.524 178.073 142.517C177.081 142.42 176.115 142.287 175.112 142.314C174.162 142.339 173.202 142.452 172.272 142.656C172.249 142.684 172.226 142.713 172.203 142.741C173.36 143.016 174.516 143.312 175.624 143.755C176.372 144.056 177.088 144.421 177.792 144.81C177.742 144.836 177.708 144.853 177.687 144.863C176.946 144.486 176.196 144.129 175.422 143.829C174.443 143.449 173.426 143.178 172.409 142.919C173.224 143.52 173.953 144.276 174.614 145.028C175.383 145.904 176.09 146.867 176.646 147.896C176.667 147.934 176.61 147.962 176.587 147.927C175.932 146.928 175.248 145.965 174.456 145.069C173.845 144.379 173.168 143.776 172.494 143.156C173.202 144.095 173.77 145.164 174.254 146.222C174.684 147.159 175.077 148.148 175.341 149.159C175.276 149.16 175.215 149.158 175.158 149.156C174.854 148.16 174.528 147.179 174.088 146.222C173.552 145.056 172.867 143.994 172.187 142.913C172.181 142.914 172.174 142.912 172.167 142.908C172.166 142.906 172.162 142.905 172.158 142.903C172.658 144.159 172.948 145.542 173.158 146.865C173.331 147.959 173.472 149.115 173.467 150.244C173.419 150.274 173.368 150.301 173.316 150.327C173.281 149.149 173.238 147.984 173.047 146.806C172.831 145.469 172.439 144.207 172.062 142.917C172.057 142.926 172.049 142.932 172.043 142.941C172.164 143.46 172.16 144.024 172.178 144.544C172.206 145.351 172.204 146.159 172.164 146.966C172.106 148.159 172.009 149.394 171.785 150.585C171.736 150.58 171.688 150.572 171.642 150.563C171.822 149.425 171.996 148.294 172.059 147.134C172.102 146.356 172.117 145.577 172.1 144.799Z" fill="black"/>
<path opacity="0.1" d="M173.057 142.27C173.013 142.303 172.97 142.272 172.958 142.233C172.95 142.23 172.942 142.225 172.94 142.213C172.818 141.509 172.85 140.952 173.275 140.353C173.719 139.725 174.32 139.239 175.004 138.894C175.054 138.87 175.107 138.909 175.098 138.965C174.878 140.296 174.156 141.483 173.057 142.27Z" fill="black"/>
<path opacity="0.1" d="M171.5 143.417C171.547 143.389 171.586 143.424 171.594 143.464C171.602 143.468 171.61 143.474 171.61 143.485C171.66 144.199 171.571 144.749 171.087 145.302C170.581 145.882 169.934 146.303 169.218 146.576C169.166 146.595 169.117 146.551 169.132 146.497C169.486 145.194 170.326 144.087 171.5 143.417Z" fill="black"/>
<path opacity="0.1" d="M168.174 140.523C168.14 140.481 168.169 140.437 168.208 140.423C168.211 140.414 168.215 140.406 168.227 140.404C168.925 140.251 169.482 140.258 170.1 140.656C170.748 141.072 171.259 141.651 171.634 142.319C171.66 142.369 171.624 142.423 171.568 142.417C170.227 142.256 169.009 141.587 168.174 140.523Z" fill="black"/>
<path opacity="0.1" d="M172.816 143.172C172.767 143.081 172.904 143.013 172.958 143.093C174.195 143.082 175.121 144.055 175.778 145.01C175.805 145.05 175.797 145.12 175.739 145.127C174.442 145.261 173.38 144.229 172.816 143.172Z" fill="black"/>
<path opacity="0.1" d="M170.78 138.765C170.799 138.663 170.948 138.696 170.94 138.792C171.91 139.561 172.02 140.9 171.932 142.056C171.928 142.104 171.877 142.153 171.828 142.121C170.734 141.412 170.556 139.942 170.78 138.765Z" fill="black"/>
<path d="M171.874 144.589C171.73 144.505 171.655 144.345 171.511 144.274C171.407 144.223 171.226 144.251 171.107 144.197C170.927 144.115 170.79 143.983 170.706 143.805C170.627 143.638 170.612 143.454 170.651 143.275C170.701 143.045 170.778 143.054 170.676 142.839C170.355 142.151 170.79 141.386 171.566 141.509C171.627 141.221 171.834 141 172.147 140.961C172.607 140.902 172.937 141.233 173.11 141.618C173.74 141.598 174.206 142.33 173.71 142.831C173.928 143.077 174.055 143.421 173.918 143.741C173.852 143.904 173.723 144.041 173.565 144.117C173.44 144.176 173.248 144.13 173.151 144.177C173.026 144.242 172.941 144.45 172.813 144.543C172.683 144.639 172.533 144.699 172.369 144.71C172.198 144.72 172.022 144.674 171.874 144.589Z" fill="#263238"/>
<path d="M155.153 139.276C155.274 139.774 157.03 142.705 157.763 143.669C158.217 144.266 159.532 143.835 159.552 142.827C159.56 142.376 159.3 138.743 159.246 138.117C159.182 137.368 157.417 137.807 156.949 137.921C156.345 138.068 155.001 138.662 155.153 139.276Z" fill="#263238"/>
<path d="M147.695 141.536C149.387 143.463 150.804 145.541 151.684 147.965C152.566 150.4 153.015 152.962 153.603 155.474C154.531 159.428 155.997 163.628 159.499 166.016C159.62 166.098 159.743 165.985 159.738 165.871C159.745 165.864 159.751 165.858 159.751 165.845C159.826 163.776 159.665 161.709 159.278 159.677C157.912 152.499 153.804 145.652 147.893 141.305C147.749 141.198 147.583 141.407 147.695 141.536Z" fill="#263238"/>
<path d="M158.036 141.212C159.143 143.509 159.81 146.125 160.309 148.615C160.81 151.115 161.076 153.661 161.116 156.21C161.197 161.335 160.448 166.728 158.38 171.449C158.327 171.571 158.135 171.524 158.175 171.388C159.633 166.447 160.622 161.492 160.544 156.316C160.505 153.775 160.24 151.239 159.756 148.744C159.262 146.199 158.436 143.817 157.656 141.356C157.586 141.136 157.936 141.004 158.036 141.212Z" fill="#263238"/>
<path d="M162.252 140.457C162.192 140.515 162.131 140.57 162.071 140.62C162.031 140.654 161.99 140.686 161.948 140.716C160.661 141.69 159.292 141.046 159.292 141.046C159.292 141.046 159.292 141.046 159.291 141.047C159.282 141.058 159.247 141.108 159.183 141.188C158.801 141.663 157.437 143.152 155.587 142.864C155.326 142.822 155.091 142.749 154.881 142.649C154.817 142.62 154.754 142.586 154.695 142.551C153.569 141.896 153.217 140.502 153.126 140.001C153.105 139.886 153.097 139.817 153.097 139.817C153.097 139.817 153.078 139.822 153.042 139.83C152.68 139.905 150.657 140.244 149.817 138.505C149.704 138.27 149.626 138.043 149.574 137.827C149.557 137.754 149.543 137.681 149.531 137.611C149.347 136.444 149.953 135.608 150.177 135.345C150.227 135.285 150.258 135.255 150.258 135.255C150.258 135.255 150.211 135.219 150.137 135.148C149.909 134.941 149.416 134.435 149.111 133.73C149.096 133.698 149.084 133.666 149.072 133.634C148.833 133.041 148.737 132.314 149.037 131.512C149.082 131.388 149.133 131.274 149.189 131.167C149.201 131.141 149.215 131.116 149.228 131.093C149.418 130.743 149.653 130.48 149.908 130.28C149.931 130.259 149.955 130.242 149.979 130.224C150.785 129.626 151.748 129.637 152.035 129.658C152.093 129.661 152.123 129.664 152.123 129.664C152.123 129.664 152.127 129.652 152.135 129.626C152.231 129.338 152.909 127.477 154.621 127.262C156.477 127.029 157.253 128.398 157.253 128.398C157.253 128.398 157.274 128.381 157.314 128.352C157.35 128.325 157.401 128.289 157.466 128.247C157.789 128.041 158.455 127.707 159.293 127.772C159.335 127.775 159.377 127.78 159.42 127.784C159.834 127.835 160.285 127.987 160.757 128.296C162.376 129.359 162.066 131.094 161.933 131.6C161.917 131.658 161.905 131.698 161.897 131.722C161.892 131.735 161.89 131.742 161.89 131.742C161.89 131.742 164.01 132.725 164.336 134.445C164.528 135.46 164.019 136.264 163.567 136.752C163.52 136.804 163.474 136.852 163.43 136.895C163.175 137.146 162.969 137.282 162.969 137.282C162.969 137.282 163.256 138.097 163.043 139.037C163.031 139.097 163.014 139.158 162.997 139.218C162.877 139.635 162.65 140.067 162.252 140.457Z" fill="#FFC527"/>
<path opacity="0.1" d="M157.72 136.098C157.241 135.67 156.753 135.232 156.221 134.864C156.227 134.891 156.228 134.917 156.233 134.945C157.088 135.976 157.72 137.247 158.256 138.443C158.561 139.118 158.835 139.808 159.09 140.504C159.156 140.685 159.224 140.865 159.291 141.047C159.282 141.058 159.247 141.108 159.183 141.188C159.138 141.052 159.094 140.919 159.046 140.786C158.769 140.016 158.47 139.256 158.136 138.509C157.577 137.264 156.868 136.158 156.13 135.032C156.11 135.024 156.092 135.009 156.084 134.982C156.083 134.972 156.081 134.962 156.079 134.954C156.065 134.934 156.054 134.915 156.041 134.896C156.061 136.255 155.784 137.634 155.558 138.96C155.416 139.787 155.267 140.612 155.106 141.433C155.028 141.828 154.963 142.242 154.881 142.649C154.816 142.62 154.753 142.586 154.695 142.551C154.767 142.222 154.847 141.893 154.912 141.571C155.071 140.782 155.22 139.99 155.361 139.196C155.622 137.733 155.825 136.28 155.935 134.801C155.926 134.805 155.917 134.805 155.909 134.805C155.405 135.939 154.798 137.026 154.19 138.107C153.844 138.72 153.495 139.329 153.155 139.946C153.145 139.963 153.134 139.982 153.125 140.002C153.105 139.886 153.097 139.817 153.097 139.817C153.097 139.817 153.078 139.822 153.042 139.83C153.362 139.255 153.688 138.683 154.011 138.11C154.64 136.998 155.253 135.878 155.859 134.754C155.861 134.752 155.859 134.751 155.859 134.748C155.156 135.285 154.454 135.81 153.796 136.406C153.089 137.048 152.479 137.768 151.804 138.44C151.783 138.461 151.748 138.433 151.763 138.41C152.295 137.63 153.006 136.941 153.697 136.305C154.297 135.749 154.941 135.216 155.623 134.757C155.561 134.766 155.499 134.775 155.439 134.782C154.335 135.192 153.249 135.637 152.205 136.187C151.607 136.501 151.023 136.842 150.458 137.208C150.157 137.403 149.866 137.617 149.574 137.828C149.557 137.755 149.543 137.682 149.531 137.612C150.363 136.989 151.325 136.478 152.211 136.018C153.078 135.568 153.976 135.166 154.903 134.846C154.053 134.934 153.198 134.975 152.347 135.042C151.628 135.099 150.903 135.233 150.178 135.346C150.228 135.286 150.258 135.256 150.258 135.256C150.258 135.256 150.212 135.22 150.137 135.149C150.813 135.052 151.489 134.96 152.17 134.905C153.267 134.817 154.364 134.76 155.458 134.666C155.529 134.643 155.599 134.621 155.669 134.601C153.463 134.527 151.233 134.355 149.111 133.73C149.096 133.699 149.084 133.667 149.072 133.635C150.063 133.886 151.062 134.097 152.079 134.227C153.249 134.374 154.426 134.401 155.601 134.482C154.459 134.002 153.349 133.408 152.253 132.842C151.219 132.309 150.19 131.761 149.189 131.168C149.201 131.142 149.215 131.117 149.228 131.094C150.228 131.629 151.221 132.173 152.231 132.693C153.359 133.274 154.524 133.791 155.652 134.372C153.868 132.8 151.962 131.46 149.908 130.28C149.931 130.26 149.955 130.242 149.979 130.225C151.75 131.097 153.42 132.237 154.912 133.545C154.411 132.981 153.944 132.377 153.497 131.788C152.976 131.101 152.479 130.397 152.035 129.659C152.093 129.662 152.123 129.665 152.123 129.665C152.123 129.665 152.127 129.653 152.135 129.627C152.642 130.378 153.151 131.125 153.703 131.846C154.389 132.743 155.16 133.557 155.877 134.427C155.88 134.43 155.88 134.432 155.881 134.436L155.896 134.452C155.897 134.448 155.897 134.445 155.897 134.442C155.358 133.6 155.107 132.598 154.872 131.636C154.621 130.609 154.455 129.585 154.503 128.527C154.505 128.498 154.547 128.497 154.548 128.526C154.552 129.567 154.757 130.596 155.018 131.6C155.247 132.482 155.491 133.356 155.909 134.168C155.91 134.122 155.918 134.08 155.921 134.036C155.721 132.056 156.45 130.15 157.314 128.353C157.35 128.326 157.401 128.289 157.466 128.247C157.065 129.125 156.691 130.021 156.415 130.938C156.204 131.633 156.103 132.323 156.083 133.017C156.274 132.226 156.599 131.467 156.993 130.743C157.598 129.628 158.354 128.615 159.294 127.772C159.335 127.776 159.377 127.78 159.42 127.785C158.539 128.618 157.807 129.603 157.218 130.664C156.695 131.607 156.249 132.623 156.095 133.692C156.102 133.883 156.118 134.074 156.14 134.268C157.137 132.466 158.504 130.694 160.246 129.576C160.309 129.536 160.381 129.634 160.325 129.684C159.515 130.399 158.697 131.065 157.977 131.88C157.296 132.65 156.677 133.494 156.151 134.382C156.156 134.421 156.163 134.461 156.168 134.499C157.239 133.786 158.328 133.089 159.497 132.539C160.287 132.169 161.105 131.871 161.933 131.6C161.918 131.659 161.905 131.699 161.898 131.722C161.053 132.031 160.215 132.362 159.407 132.753C158.382 133.248 157.417 133.854 156.461 134.468C157.538 134.266 158.676 134.247 159.759 134.278C161.021 134.317 162.306 134.467 163.531 134.787C163.577 134.799 163.557 134.864 163.512 134.857C162.237 134.638 160.969 134.469 159.675 134.434C158.677 134.409 157.699 134.5 156.711 134.576C157.977 134.708 159.243 135.048 160.439 135.446C161.499 135.797 162.573 136.216 163.567 136.753C163.52 136.805 163.474 136.852 163.43 136.896C162.417 136.401 161.399 135.935 160.316 135.576C158.996 135.14 157.65 134.899 156.291 134.639C156.288 134.645 156.281 134.649 156.273 134.651C156.27 134.651 156.266 134.652 156.262 134.654C157.626 135.186 158.936 135.978 160.138 136.788C161.133 137.458 162.151 138.201 163.043 139.038C163.031 139.098 163.014 139.159 162.997 139.219C162.039 138.377 161.084 137.55 160.01 136.832C158.791 136.016 157.502 135.394 156.202 134.74C156.205 134.751 156.204 134.762 156.207 134.773C156.707 135.061 157.151 135.48 157.576 135.85C158.236 136.424 158.875 137.022 159.484 137.649C160.387 138.576 161.293 139.564 162.071 140.622C162.031 140.656 161.99 140.688 161.948 140.718C161.181 139.735 160.413 138.763 159.54 137.856C158.955 137.247 158.349 136.66 157.72 136.098Z" fill="black"/>
<path opacity="0.1" d="M156.424 133.474C156.417 133.532 156.361 133.543 156.321 133.524C156.312 133.528 156.302 133.531 156.292 133.524C155.644 133.1 155.227 132.664 155.065 131.885C154.896 131.07 154.955 130.236 155.187 129.439C155.205 129.381 155.275 129.368 155.312 129.416C156.205 130.573 156.612 132.021 156.424 133.474Z" fill="black"/>
<path opacity="0.1" d="M156.182 135.553C156.195 135.495 156.251 135.49 156.289 135.513C156.299 135.51 156.309 135.508 156.318 135.516C156.919 136.004 157.29 136.48 157.371 137.272C157.457 138.1 157.313 138.924 157 139.693C156.976 139.748 156.906 139.754 156.873 139.702C156.104 138.46 155.847 136.978 156.182 135.553Z" fill="black"/>
<path opacity="0.1" d="M151.435 136.05C151.376 136.046 151.363 135.991 151.38 135.95C151.376 135.941 151.373 135.931 151.38 135.921C151.774 135.255 152.192 134.819 152.963 134.623C153.77 134.418 154.606 134.441 155.412 134.637C155.471 134.653 155.487 134.722 155.44 134.761C154.323 135.704 152.894 136.175 151.435 136.05Z" fill="black"/>
<path opacity="0.1" d="M156.96 134.33C156.852 134.301 156.899 134.143 157.002 134.159C157.908 133.171 159.362 133.156 160.604 133.34C160.655 133.348 160.705 133.407 160.667 133.458C159.816 134.584 158.214 134.663 156.96 134.33Z" fill="black"/>
<path opacity="0.1" d="M151.966 132.689C151.9 132.599 152.036 132.505 152.107 132.582C153.431 132.382 154.573 133.283 155.423 134.206C155.459 134.245 155.461 134.321 155.399 134.337C154.029 134.679 152.733 133.735 151.966 132.689Z" fill="black"/>
<path d="M157.387 136.123C157.214 136.175 157.032 136.116 156.87 136.178C156.752 136.222 156.641 136.386 156.51 136.441C156.312 136.522 156.106 136.534 155.904 136.469C155.713 136.408 155.556 136.284 155.443 136.121C155.298 135.912 155.362 135.858 155.116 135.78C154.334 135.526 154.05 134.617 154.72 134.093C154.537 133.831 154.515 133.504 154.714 133.227C155.008 132.819 155.514 132.803 155.947 132.95C156.396 132.437 157.32 132.608 157.349 133.371C157.706 133.379 158.072 133.533 158.225 133.878C158.304 134.05 158.318 134.254 158.262 134.435C158.217 134.577 158.038 134.695 158.004 134.807C157.963 134.953 158.065 135.174 158.044 135.345C158.024 135.519 157.961 135.682 157.848 135.819C157.73 135.962 157.564 136.068 157.387 136.123Z" fill="#263238"/>
<path d="M175.965 184.829H149.481L150.649 172.63L150.906 169.939H174.54L174.796 172.63L175.965 184.829Z" fill="#455A64"/>
<path d="M174.714 171.77L150.649 172.63L150.906 169.939H174.54L174.714 171.77Z" fill="#263238"/>
<path d="M176.053 167.65H149.393V170.89H176.053V167.65Z" fill="#455A64"/>
<path d="M20.674 184.829C71.4952 184.584 128.505 184.582 179.326 184.829C128.505 185.075 71.4948 185.074 20.674 184.829Z" fill="#263238"/>
<path d="M82.3031 45.6355C82.3031 46.6323 83.1111 47.4399 84.1075 47.4399C85.1043 47.4399 85.9119 46.6319 85.9119 45.6355C85.9119 44.6387 85.1039 43.8311 84.1075 43.8311C83.1111 43.8311 82.3031 44.6391 82.3031 45.6355Z" fill="white"/>
<path d="M82.3031 45.6356C82.3855 47.9204 85.6595 47.8628 85.7123 45.6356C85.6579 43.4092 82.3851 43.3528 82.3031 45.6356ZM82.3031 45.6356C82.3755 43.1256 86.0295 43.1044 86.1119 45.6356C86.0279 48.166 82.3755 48.1444 82.3031 45.6356Z" fill="#263238"/>
<path d="M80.0864 42.8129C81.5212 42.8129 82.6844 41.6498 82.6844 40.2149C82.6844 38.7801 81.5212 37.6169 80.0864 37.6169C78.6516 37.6169 77.4884 38.7801 77.4884 40.2149C77.4884 41.6498 78.6516 42.8129 80.0864 42.8129Z" fill="white"/>
<path d="M77.4884 40.2148C77.4572 42.4472 80.3132 43.5692 81.802 41.9304C82.7072 41.0044 82.7068 39.4256 81.8012 38.4996C80.3124 36.8628 77.4572 37.9824 77.4884 40.2148ZM77.4884 40.2148C77.4504 37.8928 80.366 36.6208 82.0456 38.256C83.1516 39.2596 83.1512 41.17 82.0448 42.1736C80.3648 43.8064 77.4504 42.5368 77.4884 40.2148Z" fill="#263238"/>
<path d="M58.6391 45.5593C70.0955 45.5593 79.3827 38.645 79.3827 30.1157C79.3827 21.5865 70.0955 14.6721 58.6391 14.6721C47.1827 14.6721 37.8955 21.5865 37.8955 30.1157C37.8955 38.645 47.1827 45.5593 58.6391 45.5593Z" fill="white"/>
<path d="M38.4636 26.5276C36.0724 33.9384 41.5428 40.6612 48.1604 43.3784C54.7032 46.148 62.4164 46.1372 68.934 43.3332C73.2204 41.4976 77.1684 38.1856 78.6252 33.6432C81.706 23.3932 71.3724 16.094 62.2632 15.0128C53.202 13.7348 41.7768 17.1868 38.4636 26.5276ZM38.4636 26.5276C41.7632 17.1576 53.1792 13.6488 62.2896 14.8136C67.0176 15.428 71.7144 17.2408 75.1988 20.5788C78.7388 23.8512 80.5956 29.0836 79.0052 33.7652C74.8204 45.4476 58.38 48.1616 48.11 43.4932C41.52 40.6924 36.0316 33.95 38.4636 26.5276Z" fill="#263238"/>
<path d="M58.7556 30.9505V32.4761C58.7556 33.1325 58.2628 33.6253 57.6052 33.6253C56.9956 33.6253 56.456 33.1325 56.456 32.4761V30.0353C56.456 30.0125 56.48 30.0125 56.48 29.9885C56.456 29.9657 56.456 29.9657 56.456 29.9417C56.456 29.3313 56.9956 28.7913 57.6052 28.7913C59.084 28.7913 60.2812 27.6181 60.2812 26.1633C60.2812 24.6853 59.084 23.5353 57.6052 23.5353C56.6432 23.5353 55.7988 24.0521 55.3524 24.8261C55.0248 25.3897 54.3208 25.5769 53.7568 25.2485C53.2172 24.9209 53.03 24.2397 53.3584 23.6769C54.2028 22.2221 55.7984 21.2361 57.6048 21.2361C60.3276 21.2361 62.5564 23.4421 62.5564 26.1637C62.5568 28.4869 60.9376 30.4349 58.7556 30.9505ZM58.7556 36.0893V36.5117C58.7556 37.1689 58.2628 37.6621 57.6052 37.6621C56.9956 37.6621 56.456 37.1693 56.456 36.5117V36.0893C56.456 35.4561 56.9956 34.9401 57.6052 34.9401C58.2628 34.9401 58.7556 35.4561 58.7556 36.0893Z" fill="#FFC527"/>
</svg>
